<svg width="24" height="24" viewBox="0 0 24 24" fill="none" xmlns="http://www.w3.org/2000/svg">
<path d="M15.2715 1.7168C14.8571 1.70346 14.4824 1.79988 14.1328 1.95117C13.7946 2.09762 13.459 2.30436 13.123 2.52734C12.8066 2.73741 12.3824 3.0359 11.9746 3.31055C11.4522 3.66237 10.9671 4.00577 10.6133 4.26074C10.5184 4.32914 10.433 4.39191 10.3584 4.44629C9.93874 4.34574 9.25435 4.17399 8.54395 3.94043C7.604 3.63174 6.77384 3.36785 6.06641 3.31641C5.32013 3.26215 4.66171 3.43891 4.08594 3.96094L3.97168 4.06934V4.07031C3.66955 4.37473 3.43316 4.70662 3.29199 5.09375C3.14979 5.48372 3.12601 5.87006 3.16211 6.24902C3.19701 6.61529 3.29071 6.99637 3.39941 7.38281C3.50196 7.74734 3.65515 8.24059 3.79102 8.71094C3.96551 9.31586 4.14707 9.88642 4.28516 10.3047C4.31748 10.4026 4.349 10.4922 4.37598 10.5723C4.19684 10.8233 3.95732 11.16 3.7041 11.5283L3.28223 12.1514C3.01127 12.5601 2.7161 12.9863 2.50879 13.3037C2.28875 13.6406 2.0848 13.9774 1.94141 14.3164C1.79317 14.6669 1.69929 15.0425 1.71777 15.457C1.73615 15.869 1.86205 16.2565 2.05957 16.6367C2.45344 17.3956 3.05839 17.7972 3.83594 17.9766C4.52683 18.1359 5.39874 18.1283 6.38867 18.1104C7.16518 18.0964 7.89459 18.1285 8.32031 18.1523C8.37442 18.225 8.43515 18.3091 8.50391 18.4004C8.63442 18.5737 8.79028 18.7772 8.96191 18.999L9.51758 19.7051C9.8245 20.0879 10.1385 20.4966 10.3779 20.791C10.6315 21.1028 10.8897 21.3989 11.1689 21.6387C11.4579 21.8866 11.7875 22.0898 12.1875 22.1992C12.5848 22.3078 12.9926 22.308 13.416 22.2383V22.2373C14.2596 22.0988 14.8311 21.6529 15.2451 20.9707C15.6128 20.3649 15.8764 19.5359 16.167 18.5938C16.3459 18.013 16.5412 17.4645 16.6924 17.0605C16.7334 16.951 16.7727 16.853 16.8057 16.7676C17.2236 16.6272 17.9005 16.3959 18.6201 16.126C19.0815 15.953 19.5702 15.7816 19.9258 15.6455C20.3024 15.5014 20.6651 15.3484 20.9805 15.1582C21.3066 14.9614 21.6037 14.7118 21.833 14.3662C22.0038 14.1087 22.1176 13.8268 22.1914 13.5234L22.2529 13.2129C22.3137 12.8192 22.2959 12.4336 22.1758 12.0566C22.0571 11.6843 21.8532 11.3664 21.6074 11.084C21.1425 10.5498 20.4324 10.045 19.6221 9.48047C19.1227 9.13287 18.6598 8.7787 18.3203 8.51074C18.2189 8.43072 18.1299 8.3575 18.0537 8.2959C18.0259 7.86823 17.984 7.12325 17.9893 6.33789V6.33691C17.9953 5.35209 17.9928 4.48304 17.8242 3.7959C17.735 3.43235 17.5926 3.08203 17.3564 2.77051C17.1175 2.45543 16.8125 2.21885 16.4561 2.04102C16.0724 1.84952 15.6832 1.73007 15.2715 1.7168Z" fill="#92CF77" stroke="#7AAB64" stroke-width="1.71429"/>
</svg>
