<svg width="30" height="30" viewBox="0 0 30 30" fill="none" xmlns="http://www.w3.org/2000/svg">
<path d="M12.5 10L10.7322 11.7678L13.3378 14.3734H10V16.8734H13.75V20.6234H16.25V16.8734H20V14.3734H16.6622L19.2678 11.7678L17.5 10L15 12.5L12.5 10Z" fill="var(-----------A1, #242424)"/>
<path fill-rule="evenodd" clip-rule="evenodd" d="M26.875 15C26.875 21.5584 21.5584 26.875 15 26.875C8.44162 26.875 3.125 21.5584 3.125 15C3.125 8.44162 8.44162 3.125 15 3.125C21.5584 3.125 26.875 8.44162 26.875 15ZM24.375 15C24.375 20.1777 20.1777 24.375 15 24.375C9.82233 24.375 5.625 20.1777 5.625 15C5.625 9.82233 9.82233 5.625 15 5.625C20.1777 5.625 24.375 9.82233 24.375 15Z" fill="var(-----------A1, #242424)"/>
</svg>
