<svg width="702" height="200" viewBox="0 0 702 200" fill="none" xmlns="http://www.w3.org/2000/svg">
<path fill-rule="evenodd" clip-rule="evenodd" d="M796.695 74.7597L790.271 77.3876L785.841 82.7262C785.216 83.4794 784.013 83.2956 783.643 82.3902L781.013 75.9723L775.669 71.5467C774.916 70.9228 775.1 69.7215 776.006 69.3512L782.429 66.7229L786.923 61.3941C787.548 60.6414 788.687 60.8153 789.057 61.7198L791.687 68.1373L797.031 72.5634C797.784 73.1881 797.601 74.3894 796.695 74.7597ZM752.483 30.4748C739.159 24.633 733.086 9.13275 738.919 -4.14542C744.753 -17.4232 760.283 -23.4506 773.608 -17.6078C786.933 -11.7651 793.006 3.73553 787.172 17.0128C781.339 30.291 765.808 36.3184 752.483 30.4748ZM771.99 -13.9246C760.701 -18.8758 747.555 -13.7989 742.629 -2.58554C737.702 8.62869 742.86 21.7317 754.15 26.682C765.44 31.632 778.585 26.555 783.512 15.3417C788.438 4.12833 783.28 -8.9751 771.99 -13.9246ZM770.214 21.1483C769.157 21.2195 766.442 19.9047 764.841 20.0155C763.753 20.0907 762.984 21.1889 762.975 21.1605C762.824 20.7186 762.909 16.6178 769.336 16.2691C773.088 16.0664 774.886 11.9976 775.663 9.82376C775.663 9.82376 775.572 9.35211 775.821 9.38995C776.015 9.42014 776.12 9.8931 776.12 9.8931C777.506 15.0264 774.413 20.8646 770.214 21.1483ZM768.645 13.6178C767.81 13.6877 766.537 13.4854 766.499 13.0021C766.512 13.1656 766.839 12.6795 766.839 12.6795C767.301 12.2633 767.395 11.6602 766.76 10.8809C764.863 8.55527 760.061 10.3751 759.296 14.6912C758.79 17.5452 760.306 19.156 761.15 20.3168C761.15 20.3168 761.928 21.0303 761.873 21.1979C761.774 21.501 760.814 21.3466 760.814 21.3466C749.922 20.3659 745.027 14.3358 746.863 7.97061C747.486 5.80804 748.759 4.20761 750.026 3.06979C750.026 3.06979 750.461 2.52115 750.886 2.58646C751.384 2.66257 751.268 3.06076 751.191 3.56165C751.125 3.99271 751.303 4.25443 752.096 5.18866C752.981 6.23233 754.287 5.44812 754.315 4.02924C754.43 -1.70221 757.053 -5.47647 760.75 -7.69266C764.95 -10.2129 767.771 -10.421 768.617 -9.99399C768.951 -9.72327 768.771 -9.29581 768.502 -7.69357C768.161 -5.65488 768.649 -3.08734 769.868 -1.01889C772.112 2.7887 775.541 3.68823 773.854 9.48996C773.128 11.9877 770.931 13.4241 768.645 13.6178ZM703.462 87.3217L698.57 89.6054C698.631 89.4577 698.687 89.3091 698.751 89.1617C701.915 81.9627 708.604 77.4083 715.904 76.6223L712.365 80.6727C708.838 81.8731 705.69 84.1587 703.462 87.3217ZM726.333 78.1488C726.443 78.1948 726.554 78.2358 726.664 78.284C733.962 81.4844 738.546 88.3005 739.241 95.7054L735.242 92.1144C734.07 88.5203 731.775 85.3055 728.573 83.0348L726.333 78.1488ZM733.218 107.468L737.887 105.337C737.778 105.616 737.667 105.895 737.545 106.172C734.25 113.671 727.132 118.3 719.481 118.79L723.048 114.958C727.143 113.796 730.799 111.194 733.218 107.468ZM708.008 112.505L710.138 117.256C709.97 117.187 709.8 117.124 709.633 117.05C702.118 113.755 697.483 106.626 697.006 98.9684L700.825 102.457C701.936 106.468 704.428 110.066 708.008 112.505ZM696.717 91.7194L709.941 86.31L719.194 75.3385C720.481 73.7881 722.824 74.1458 723.589 76.0097L729.003 89.2225L740.005 98.335C741.556 99.6201 741.177 102.094 739.312 102.857L726.087 108.266L716.966 119.258C715.679 120.808 713.204 120.43 712.44 118.567L707.025 105.354L696.024 96.2418C694.472 94.9563 694.851 92.4824 696.717 91.7194ZM730.02 100.007C731.264 100.724 733.818 100.934 733.818 100.934C734.878 101.049 735.383 99.6444 734.078 99.239C733.321 99.0039 730.982 98.8449 730.176 98.9891C730.176 98.9891 728.905 99.3643 730.02 100.007ZM719.715 81.7515C719.715 81.7515 719.153 84.2465 719.465 85.6438C719.746 86.8974 720.482 85.7992 720.482 85.7992C720.861 85.0753 721.408 82.8006 721.409 82.01C721.412 80.6465 719.922 80.7078 719.715 81.7515ZM716.506 114.028C716.742 113.272 716.901 110.932 716.757 110.124C716.757 110.124 716.383 108.854 715.741 109.97C715.023 111.214 714.812 113.769 714.812 113.769C714.696 114.829 716.1 115.334 716.506 114.028ZM716.981 98.0121C716.795 99.6693 716.902 100.779 717.353 100.849C718.018 100.951 718.461 99.6224 718.72 98.2701C720.299 98.44 721.342 98.3463 721.404 97.9449C721.494 97.3535 720.249 96.9387 718.942 96.681C719.046 95.4634 719.003 94.0792 718.407 93.9635C717.833 93.8527 717.443 95.2612 717.219 96.4324C716.001 96.3225 714.62 96.345 714.512 96.8914C714.408 97.4161 715.811 97.7914 716.981 98.0121ZM701.771 96.0355C701.771 96.0355 704.271 96.5977 705.673 96.2859C706.929 96.0053 705.829 95.2702 705.829 95.2702C705.102 94.8914 702.822 94.3441 702.03 94.3427C700.663 94.3391 700.724 95.8287 701.771 96.0355ZM751.432 97.7378L753.854 101.157C755.673 102.63 755.376 104.574 753.199 105.436L749.737 108.073C749.512 108.699 749.272 109.324 749 109.943C742.582 124.551 725.528 131.197 710.909 124.787C699.288 119.692 692.713 107.881 693.724 95.9126C693.867 96.0945 694.028 96.2679 694.22 96.4238L694.7 96.8621C694.386 106.166 699.667 115.156 708.72 119.126C709.61 119.516 710.511 119.839 711.418 120.112L711.51 120.318C712.411 122.447 715.747 122.958 717.244 121.194L717.342 121.088C726.658 121.406 735.662 116.13 739.637 107.083C740.077 106.081 740.435 105.064 740.727 104.041L740.826 103.995C743.004 103.132 743.57 99.4328 741.751 97.9594L741.618 97.84C741.683 88.7586 736.433 80.0772 727.581 76.1957C726.73 75.8223 725.869 75.5101 725.001 75.2444L724.461 74.066C723.56 71.9363 720.379 71.4499 718.882 73.2133L718.002 74.2205C709.031 74.2827 700.503 79.5024 696.664 88.2392C696.271 89.1356 695.945 90.0442 695.67 90.959L695.011 91.2667C694.799 91.3509 694.608 91.4586 694.429 91.577C694.825 89.9433 695.36 88.3212 696.06 86.7289C702.478 72.1197 719.532 65.4738 734.151 71.8841C744.791 76.5493 751.202 86.846 751.432 97.7378ZM703.064 33.7045L696.64 36.3323L692.21 41.6706C691.585 42.4242 690.383 42.2395 690.012 41.335L687.382 34.9179L682.039 30.4915C681.285 29.8671 681.469 28.6658 682.375 28.2955L688.798 25.6681L693.293 20.3384C693.917 19.5858 695.056 19.7601 695.427 20.665L698.057 27.082L703.4 31.5085C704.153 32.132 703.97 33.3342 703.064 33.7045ZM648.736 -47.7754L643.824 -45.4822C643.883 -45.6254 643.937 -45.77 644 -45.9128C647.161 -53.1091 653.847 -57.6622 661.145 -58.45L657.612 -54.4064C654.097 -53.206 650.96 -50.9272 648.736 -47.7754ZM671.594 -56.9208C671.702 -56.8753 671.811 -56.8352 671.919 -56.7883C679.215 -53.5888 683.8 -46.7772 684.499 -39.3764L680.488 -42.9795C679.317 -46.5709 677.025 -49.783 673.827 -52.0519L671.594 -56.9208ZM678.446 -27.6068L683.158 -29.7581C683.046 -29.4703 682.931 -29.1829 682.806 -28.8973C679.509 -21.3929 672.379 -16.7628 664.719 -16.2804L668.322 -20.1511C672.396 -21.3137 676.032 -23.9033 678.446 -27.6068ZM653.251 -22.6064L655.399 -17.8133C655.229 -17.8831 655.057 -17.9479 654.887 -18.0227C647.364 -21.3213 642.726 -28.4595 642.254 -36.1238L646.1 -32.6112C647.21 -28.6185 649.691 -25.0384 653.251 -22.6064ZM641.969 -43.3678L655.195 -48.7781L664.447 -59.7491C665.734 -61.2995 668.078 -60.9414 668.842 -59.077L674.256 -45.8651L685.258 -36.7521C686.809 -35.4675 686.431 -32.9937 684.565 -32.2306L671.34 -26.8208L662.219 -15.829C660.933 -14.2791 658.457 -14.6566 657.693 -16.5205L652.278 -29.7333L641.277 -38.8453C639.726 -40.1309 640.104 -42.6043 641.969 -43.3678ZM675.273 -35.0806C676.517 -34.3635 679.071 -34.1531 679.071 -34.1531C680.131 -34.0382 680.637 -35.4423 679.331 -35.8486C678.574 -36.0828 676.235 -36.2418 675.429 -36.0981C675.429 -36.0981 674.159 -35.7234 675.273 -35.0806ZM664.968 -53.3362C664.968 -53.3362 664.406 -50.8411 664.719 -49.443C664.999 -48.1898 665.736 -49.2871 665.736 -49.2871C666.113 -50.0119 666.661 -52.287 666.663 -53.0771C666.666 -54.4411 665.175 -54.3794 664.968 -53.3362ZM661.76 -21.0591C661.995 -21.8154 662.154 -24.1555 662.01 -24.9622C662.01 -24.9622 661.637 -26.2325 660.994 -25.1167C660.276 -23.873 660.064 -21.3177 660.064 -21.3177C659.95 -20.2569 661.353 -19.7533 661.76 -21.0591ZM662.234 -37.0747C662.048 -35.4171 662.155 -34.3076 662.606 -34.2382C663.272 -34.136 663.714 -35.4643 663.974 -36.817C665.552 -36.6472 666.595 -36.7409 666.657 -37.1422C666.747 -37.7341 665.503 -38.149 664.195 -38.4062C664.299 -39.6237 664.256 -41.0079 663.66 -41.1232C663.086 -41.234 662.696 -39.8255 662.472 -38.6548C661.255 -38.7647 659.874 -38.7418 659.765 -38.1958C659.662 -37.6706 661.064 -37.2954 662.234 -37.0747ZM647.024 -39.0517C647.024 -39.0517 649.525 -38.49 650.926 -38.8012C652.182 -39.0814 651.082 -39.8174 651.082 -39.8174C650.355 -40.1953 648.075 -40.7422 647.284 -40.7444C645.917 -40.7471 645.978 -39.258 647.024 -39.0517ZM698.452 -29.6509L695.01 -27.0289C694.782 -26.3937 694.539 -25.7609 694.263 -25.1334C687.847 -10.5282 670.791 -3.88596 656.169 -10.298C644.544 -15.3953 637.966 -27.2077 638.977 -39.1751C639.12 -38.9931 639.281 -38.8192 639.474 -38.6634L639.946 -38.2323C639.619 -28.9162 644.901 -19.9105 653.964 -15.9367C654.861 -15.543 655.77 -15.2173 656.686 -14.9435L656.764 -14.7692C657.665 -12.6395 661 -12.13 662.497 -13.8935L662.574 -13.9755C671.895 -13.6534 680.906 -18.933 684.883 -27.987C685.326 -28.9942 685.685 -30.0162 685.977 -31.0455L686.08 -31.0919C688.257 -31.9549 688.823 -35.6544 687.004 -37.1274L686.865 -37.2526C686.922 -46.3281 681.675 -55.001 672.83 -58.8798C671.983 -59.2509 671.125 -59.5622 670.262 -59.827L669.714 -61.0211C668.813 -63.1508 665.632 -63.6378 664.135 -61.8729L663.245 -60.854C654.276 -60.7892 645.749 -55.5672 641.91 -46.8299C641.519 -45.9389 641.195 -45.0358 640.921 -44.1273L640.264 -43.8205C640.052 -43.7363 639.861 -43.6286 639.682 -43.5102C640.077 -45.1417 640.612 -46.7619 641.311 -48.3524C647.728 -62.9576 664.783 -69.6003 679.405 -63.1887C690.048 -58.5221 696.461 -48.2267 696.694 -37.3373L699.108 -33.9301C700.926 -32.4567 700.629 -30.5131 698.452 -29.6509ZM651.714 66.7458C645.879 80.0272 630.35 86.0587 617.029 80.2177C603.707 74.3764 597.638 58.8744 603.473 45.593C609.309 32.3117 624.838 26.2807 638.159 32.1216C651.48 37.9625 657.549 53.4645 651.714 66.7458ZM636.536 35.817C625.243 30.8644 612.093 35.9436 607.165 47.1606C602.237 58.377 607.397 71.4845 618.69 76.4362C629.983 81.3875 643.132 76.3088 648.061 65.0923C652.989 53.8749 647.829 40.7688 636.536 35.817ZM619.607 74.3327C609.478 69.8908 604.85 58.1357 609.27 48.0768C613.69 38.017 625.484 33.4617 635.612 37.9026C645.74 42.3435 650.368 54.0988 645.949 64.159C641.529 74.2192 629.735 78.774 619.607 74.3327ZM635.515 47.8687C634.189 45.6174 633.658 42.8232 634.029 40.6053C634.322 38.8611 634.518 38.3963 634.154 38.1017C633.233 37.6364 630.164 37.8629 625.592 40.6053C621.568 43.0183 618.714 47.1245 618.589 53.3636C618.558 54.9077 617.138 55.7605 616.174 54.6253C615.311 53.6082 615.118 53.3231 615.19 52.8537C615.273 52.3091 615.4 51.8754 614.857 51.7929C614.395 51.7213 613.921 52.3186 613.921 52.3186C612.542 53.5564 611.157 55.2992 610.479 57.6527C608.48 64.5797 613.809 71.1427 625.661 72.2084C625.661 72.2084 626.707 72.3773 626.815 72.0471C626.875 71.8652 626.027 71.0895 626.027 71.0895C625.109 69.8246 623.459 68.072 624.01 64.9662C624.843 60.2689 630.069 58.2888 632.133 60.8198C632.824 61.6671 632.722 62.3243 632.218 62.7766C632.218 62.7766 631.863 63.3058 631.849 63.1275C631.891 63.6536 633.276 63.8738 634.185 63.7977C636.673 63.5873 639.064 62.0239 639.854 59.3063C641.689 52.9916 637.958 52.0132 635.515 47.8687ZM642.319 59.7451C642.319 59.7451 642.205 59.2293 641.994 59.1973C641.723 59.1554 641.823 59.6689 641.823 59.6689C640.978 62.0351 639.02 66.463 634.936 66.6837C627.942 67.0634 627.849 71.5255 628.014 72.007C628.024 72.0372 628.861 70.8422 630.045 70.7602C631.787 70.6404 634.741 72.0715 635.892 71.994C640.461 71.685 643.828 65.3306 642.319 59.7451ZM611.061 -6.63727L604.638 -4.0094L600.208 1.32925C599.584 2.0824 598.381 1.89816 598.01 0.993683L595.38 -5.42422L590.037 -9.85028C589.283 -10.4746 589.467 -11.6755 590.373 -12.0462L596.796 -14.6736L601.291 -20.0024C601.915 -20.7556 603.054 -20.5817 603.425 -19.6767L606.055 -13.2593L611.398 -8.83319C612.152 -8.20844 611.968 -7.00708 611.061 -6.63727ZM566.84 -50.9258C553.516 -56.769 547.443 -72.2687 553.276 -85.5473C559.11 -98.8246 574.64 -104.852 587.965 -99.0093C601.29 -93.1671 607.363 -77.6664 601.53 -64.3887C595.696 -51.1105 580.165 -45.0831 566.84 -50.9258ZM586.347 -95.3269C575.058 -100.278 561.912 -95.1999 556.985 -83.9861C552.059 -72.7732 557.217 -59.6698 568.507 -54.7199C579.797 -49.7695 592.942 -54.8465 597.869 -66.0603C602.795 -77.2736 597.637 -90.3766 586.347 -95.3269ZM584.581 -60.2487C583.524 -60.177 580.81 -61.4923 579.209 -61.382C578.121 -61.3072 577.351 -60.2086 577.342 -60.2365C577.191 -60.6779 577.277 -64.7792 583.703 -65.1279C587.455 -65.3301 589.254 -69.3989 590.03 -71.5728C590.03 -71.5728 589.939 -72.0449 590.188 -72.007C590.382 -71.9773 590.487 -71.5034 590.487 -71.5034C591.873 -66.3706 588.78 -60.5329 584.581 -60.2487ZM583.013 -67.7792C582.177 -67.7098 580.905 -67.9116 580.867 -68.3954C580.879 -68.2319 581.206 -68.7174 581.206 -68.7174C581.669 -69.1341 581.762 -69.7372 581.128 -70.5161C579.231 -72.8413 574.429 -71.0219 573.663 -66.7057C573.156 -63.8522 574.674 -62.2414 575.517 -61.0797C575.517 -61.0797 576.295 -60.3667 576.241 -60.1996C576.141 -59.896 575.181 -60.0513 575.181 -60.0513C564.29 -61.0302 559.394 -67.0612 561.23 -73.4264C561.854 -75.5885 563.126 -77.1894 564.393 -78.3268C564.393 -78.3268 564.827 -78.8759 565.253 -78.8105C565.751 -78.7344 565.636 -78.3362 565.559 -77.8349C565.493 -77.4038 565.67 -77.1425 566.463 -76.2083C567.349 -75.1651 568.654 -75.9484 568.682 -77.3678C568.797 -83.0992 571.42 -86.8735 575.117 -89.0901C579.318 -91.6099 582.138 -91.8184 582.984 -91.3914C583.319 -91.1207 583.138 -90.6928 582.87 -89.0905C582.528 -87.0518 583.016 -84.4839 584.235 -82.4159C586.479 -78.6078 589.909 -77.7092 588.221 -71.9066C587.495 -69.4089 585.299 -67.9733 583.013 -67.7792ZM517.856 5.91165L512.941 8.20621C513.001 8.05936 513.057 7.91205 513.121 7.76566C516.283 0.568909 522.97 -3.98462 530.268 -4.77155L526.721 -0.7117C523.212 0.489197 520.079 2.76486 517.856 5.91165ZM540.701 -3.24771C540.813 -3.20041 540.927 -3.15851 541.039 -3.10941C548.343 0.0932617 552.928 6.91339 553.622 14.321L549.601 10.7097C548.43 7.11835 546.138 3.90671 542.941 1.63828L540.701 -3.24771ZM547.566 26.0807L552.275 23.9308C552.164 24.215 552.05 24.4992 551.926 24.7812C548.63 32.2847 541.502 36.9148 533.843 37.3986L537.422 33.5545C541.504 32.3914 545.149 29.7951 547.566 26.0807ZM522.375 31.1063L524.506 35.8598C524.34 35.7918 524.173 35.7288 524.008 35.6562C516.491 32.3604 511.855 25.2312 511.376 17.5741L515.206 21.0727C516.315 25.0785 518.803 28.6707 522.375 31.1063ZM511.084 10.3224L524.309 4.91254L533.562 -6.0589C534.849 -7.60889 537.192 -7.25034 537.956 -5.38684L543.371 7.82556L554.372 16.938C555.923 18.2227 555.544 20.697 553.679 21.4596L540.454 26.8699L531.333 37.8616C530.047 39.4111 527.571 39.0328 526.807 37.1697L521.392 23.9568L510.391 14.8448C508.839 13.5597 509.218 11.0854 511.084 10.3224ZM544.387 18.6096C545.631 19.3258 548.185 19.5367 548.185 19.5367C549.246 19.6524 549.751 18.247 548.445 17.8416C547.688 17.6065 545.35 17.4479 544.543 17.5921C544.543 17.5921 543.272 17.9673 544.387 18.6096ZM534.083 0.354492C534.083 0.354492 533.52 2.84906 533.833 4.24768C534.113 5.50037 534.849 4.40265 534.849 4.40265C535.227 3.67789 535.775 1.40359 535.777 0.613525C535.779 -0.750854 534.289 -0.689636 534.083 0.354492ZM530.874 32.6306C531.109 31.8743 531.268 29.5342 531.125 28.7279C531.125 28.7279 530.751 27.4572 530.108 28.5721C529.391 29.8171 529.179 32.3725 529.179 32.3725C529.064 33.4328 530.468 33.9373 530.874 32.6306ZM531.348 16.6151C531.162 18.2723 531.27 19.383 531.72 19.4515C532.385 19.5542 532.828 18.2254 533.087 16.8732C534.666 17.0425 535.709 16.9489 535.771 16.5475C535.862 15.9561 534.617 15.5417 533.309 15.284C533.413 14.0664 533.371 12.6823 532.775 12.5669C532.201 12.4557 531.81 13.8642 531.586 15.0349C530.368 14.925 528.988 14.948 528.879 15.4948C528.776 16.0191 530.178 16.3944 531.348 16.6151ZM516.138 14.639C516.138 14.639 518.639 15.2016 520.04 14.8885C521.296 14.6083 520.195 13.8723 520.195 13.8723C519.469 13.4948 517.19 12.9475 516.397 12.9462C515.03 12.9426 515.092 14.4318 516.138 14.639ZM565.814 16.361L568.221 19.7601C570.04 21.233 569.744 23.1762 567.566 24.0393L564.127 26.6595C563.899 27.2937 563.657 27.9257 563.381 28.5518C556.963 43.1597 539.909 49.8065 525.29 43.3962C513.673 38.3026 507.098 26.4965 508.105 14.5322C508.245 14.7079 508.402 14.8759 508.588 15.0268L509.081 15.4773C508.769 24.7785 514.047 33.7653 523.096 37.7328C523.983 38.1215 524.882 38.444 525.787 38.7165L525.878 38.9206C526.779 41.0508 530.114 41.5597 531.611 39.7967L531.707 39.6935C541.024 40.0143 550.031 34.7364 554.007 25.6861C554.447 24.6839 554.806 23.6668 555.097 22.6425L555.194 22.5979C557.371 21.7348 557.937 18.0362 556.118 16.5624L555.988 16.4448C556.054 7.36386 550.807 -1.31708 541.957 -5.19766C541.104 -5.57199 540.239 -5.88504 539.369 -6.15125L538.829 -7.33051C537.927 -9.46066 534.747 -9.94669 533.249 -8.1832L532.366 -7.17151C523.402 -7.10303 514.883 -1.8833 511.046 6.84854C510.655 7.73996 510.33 8.6431 510.056 9.55255L509.377 9.86923C509.173 9.95078 508.989 10.0539 508.816 10.167C509.211 8.53995 509.744 6.92422 510.441 5.33777C516.86 -9.27057 533.913 -15.9169 548.532 -9.50659C559.177 -4.83954 565.588 5.46432 565.814 16.361ZM517.431 -47.693L511.008 -45.0646L506.578 -39.726C505.953 -38.9733 504.75 -39.1575 504.38 -40.062L501.749 -46.4799L496.406 -50.9055C495.653 -51.5299 495.836 -52.7316 496.742 -53.1019L503.166 -55.7293L507.66 -61.0585C508.285 -61.8112 509.423 -61.6364 509.794 -60.7315L512.424 -54.3149L517.767 -49.8885C518.521 -49.2646 518.337 -48.0632 517.431 -47.693ZM463.086 -129.164L458.194 -126.881C458.253 -127.023 458.307 -127.167 458.37 -127.309C461.531 -134.506 468.216 -139.059 475.512 -139.847L471.985 -135.811C468.458 -134.611 465.312 -132.325 463.086 -129.164ZM485.962 -138.318C486.068 -138.274 486.175 -138.234 486.282 -138.188C493.575 -134.99 498.157 -128.181 498.857 -120.782L494.868 -124.364C493.696 -127.962 491.399 -131.18 488.193 -133.451L485.962 -138.318ZM492.841 -109.016L497.51 -111.148C497.4 -110.864 497.286 -110.581 497.163 -110.299C493.867 -102.798 486.744 -98.1674 479.09 -97.681L482.679 -101.537C486.77 -102.698 490.422 -105.297 492.841 -109.016ZM467.618 -104.004L469.766 -99.2107C469.595 -99.2809 469.422 -99.3467 469.25 -99.4215C461.73 -102.719 457.094 -109.856 456.623 -117.519L460.458 -114.016C461.57 -110.021 464.054 -106.438 467.618 -104.004ZM456.337 -124.764L469.562 -130.175L478.409 -141.146C480.102 -142.696 482.446 -142.338 483.209 -140.474L488.624 -127.262L499.625 -118.15C501.177 -116.864 500.798 -114.391 498.933 -113.627L485.708 -108.217L476.586 -97.226C475.3 -95.676 472.824 -96.0544 472.06 -97.9179L466.646 -111.13L455.644 -120.242C454.093 -121.527 454.472 -124.002 456.337 -124.764ZM489.64 -116.478C490.884 -115.761 493.439 -115.55 493.439 -115.55C494.499 -115.435 495.004 -116.839 493.698 -117.246C492.942 -117.48 490.603 -117.639 489.796 -117.495C489.796 -117.495 488.526 -117.12 489.64 -116.478ZM479.336 -134.732C479.336 -134.732 478.773 -132.239 479.086 -130.839C479.367 -129.587 480.102 -130.684 480.102 -130.684C480.481 -131.41 481.028 -133.684 481.03 -134.474C481.033 -135.838 479.542 -135.777 479.336 -134.732ZM476.127 -102.456C476.362 -103.213 476.522 -105.552 476.378 -106.359C476.378 -106.359 476.004 -107.629 475.361 -106.514C474.644 -105.27 474.432 -102.715 474.432 -102.715C474.317 -101.654 475.721 -101.149 476.127 -102.456ZM476.601 -118.472C476.415 -116.814 476.523 -115.704 476.973 -115.635C477.639 -115.533 478.081 -116.862 478.341 -118.214C479.919 -118.044 480.962 -118.138 481.024 -118.539C481.115 -119.131 479.871 -119.546 478.563 -119.803C478.666 -121.021 478.624 -122.404 478.027 -122.52C477.453 -122.631 477.064 -121.223 476.839 -120.052C475.622 -120.162 474.241 -120.139 474.133 -119.592C474.029 -119.068 475.431 -118.692 476.601 -118.472ZM461.391 -120.449C461.391 -120.449 463.892 -119.886 465.293 -120.198C466.549 -120.479 465.449 -121.215 465.449 -121.215C464.723 -121.592 462.443 -122.139 461.651 -122.141C460.284 -122.145 460.345 -120.655 461.391 -120.449ZM512.82 -111.047L509.38 -108.427C509.151 -107.792 508.909 -107.158 508.633 -106.529C502.216 -91.9238 485.163 -85.2807 470.544 -91.6914C458.925 -96.7859 452.35 -108.592 453.357 -120.556C453.497 -120.38 453.655 -120.212 453.841 -120.06L454.304 -119.638C453.977 -110.32 459.264 -101.309 468.333 -97.3332C469.229 -96.94 470.138 -96.6143 471.053 -96.34L471.131 -96.1661C472.032 -94.0369 475.367 -93.5274 476.864 -95.2905L476.939 -95.3702C486.267 -95.0427 495.286 -100.321 499.265 -109.377C499.71 -110.389 500.071 -111.416 500.364 -112.451L500.447 -112.489C502.625 -113.351 503.191 -117.051 501.371 -118.524L501.245 -118.637C501.303 -127.717 496.052 -136.394 487.199 -140.276C486.352 -140.647 485.493 -140.959 484.629 -141.224L484.082 -142.419C483.181 -144.548 480 -145.034 478.503 -143.271L477.613 -142.253C468.638 -142.191 460.106 -136.97 456.267 -128.231C455.874 -127.337 455.549 -126.431 455.275 -125.518L454.631 -125.217C454.426 -125.136 454.242 -125.033 454.068 -124.92C454.463 -126.545 454.996 -128.158 455.693 -129.743C462.109 -144.348 479.162 -150.992 493.781 -144.582C504.422 -139.916 510.833 -129.621 511.064 -118.731L513.475 -115.326C515.294 -113.853 514.996 -111.91 512.82 -111.047ZM466.071 -14.6552C460.236 -1.3743 444.707 4.65714 431.386 -1.18423C418.064 -7.02515 411.995 -22.5271 417.83 -35.808C423.666 -49.0898 439.195 -55.1208 452.516 -49.2799C465.837 -43.4385 471.906 -27.937 466.071 -14.6552ZM450.887 -45.5876C439.597 -50.538 426.45 -45.4574 421.522 -34.2409C416.594 -23.0248 421.751 -9.9183 433.041 -4.96838C444.33 -0.0171204 457.477 -5.09766 462.405 -16.3146C467.333 -27.5311 462.176 -40.6381 450.887 -45.5876ZM433.964 -7.06879C423.835 -11.5102 419.207 -23.2654 423.627 -33.3252C428.047 -43.3859 439.841 -47.9407 449.969 -43.4994C460.097 -39.058 464.725 -27.3023 460.306 -17.2425C455.886 -7.18277 444.092 -2.62787 433.964 -7.06879ZM449.883 -33.5283C448.556 -35.7792 448.026 -38.5737 448.397 -40.7922C448.688 -42.5363 448.885 -42.9998 448.521 -43.2962C447.6 -43.761 444.531 -43.5345 439.959 -40.7922C435.936 -38.3792 433.082 -34.2725 432.956 -28.0338C432.925 -26.4897 431.505 -25.637 430.542 -26.7717C429.678 -27.7888 429.485 -28.0743 429.557 -28.5424C429.641 -29.0879 429.766 -29.5211 429.224 -29.604C428.761 -29.6761 428.288 -29.0789 428.288 -29.0789C426.91 -27.8406 425.525 -26.0974 424.846 -23.7447C422.848 -16.8173 428.176 -10.2539 440.029 -9.18771C440.029 -9.18771 441.074 -9.01968 441.182 -9.35031C441.241 -9.53183 440.395 -10.308 440.395 -10.308C439.477 -11.5724 437.826 -13.3255 438.377 -16.4317C439.21 -21.1281 444.436 -23.1087 446.5 -20.5772C447.191 -19.7299 447.09 -19.0727 446.586 -18.62C446.586 -18.62 446.23 -18.0912 446.216 -18.2696C446.258 -17.7434 447.643 -17.5227 448.552 -17.5997C451.04 -17.8101 453.431 -19.3727 454.221 -22.0906C456.057 -28.4054 452.325 -29.3838 449.883 -33.5283ZM456.686 -21.6515C456.686 -21.6515 456.573 -22.1673 456.361 -22.2001C456.09 -22.2416 456.19 -21.7281 456.19 -21.7281C455.345 -19.361 453.387 -14.9344 449.303 -14.7133C442.31 -14.334 442.217 -9.87103 442.381 -9.38995C442.391 -9.35977 443.229 -10.5548 444.412 -10.6368C446.155 -10.757 449.108 -9.32553 450.26 -9.40302C454.829 -9.71201 458.195 -16.066 456.686 -21.6515ZM425.021 -88.2126L418.598 -85.5847L414.168 -80.2461C413.544 -79.493 412.341 -79.6776 411.97 -80.5826L409.34 -87L403.997 -91.4252C403.243 -92.0495 403.427 -93.2513 404.333 -93.622L410.756 -96.2495L415.251 -101.578C415.875 -102.331 417.014 -102.157 417.384 -101.253L420.014 -94.8355L425.358 -90.409C426.111 -89.7851 425.928 -88.5833 425.021 -88.2126ZM380.808 -132.499C367.486 -138.34 361.416 -153.838 367.25 -167.117C373.083 -180.394 388.611 -186.423 401.933 -180.582C415.254 -174.74 421.324 -159.242 415.491 -145.964C409.657 -132.685 394.129 -126.657 380.808 -132.499ZM400.321 -176.896C389.032 -181.847 375.886 -176.769 370.959 -165.557C366.033 -154.343 371.191 -141.24 382.481 -136.289C393.77 -131.339 406.916 -136.416 411.842 -147.63C416.769 -158.843 411.61 -171.946 400.321 -176.896ZM398.542 -141.824C397.484 -141.753 394.769 -143.068 393.168 -142.957C392.08 -142.883 391.312 -141.784 391.302 -141.812C391.151 -142.255 391.237 -146.355 397.663 -146.703C401.415 -146.907 403.214 -150.974 403.991 -153.149C403.991 -153.149 403.899 -153.621 404.149 -153.582C404.343 -153.553 404.447 -153.08 404.447 -153.08C405.833 -147.946 402.74 -142.108 398.542 -141.824ZM396.972 -149.355C396.137 -149.285 394.865 -149.487 394.826 -149.972C394.839 -149.808 395.166 -150.293 395.166 -150.293C395.628 -150.709 395.722 -151.313 395.088 -152.091C393.191 -154.417 388.389 -152.597 387.623 -148.282C387.117 -145.428 388.634 -143.817 389.477 -142.655C389.477 -142.655 390.255 -141.942 390.201 -141.775C390.101 -141.472 389.141 -141.626 389.141 -141.626C378.25 -142.606 373.354 -148.637 375.19 -155.002C375.814 -157.164 377.086 -158.766 378.353 -159.903C378.353 -159.903 378.788 -160.451 379.214 -160.386C379.711 -160.31 379.596 -159.912 379.519 -159.411C379.453 -158.98 379.63 -158.717 380.424 -157.784C381.308 -156.741 382.614 -157.524 382.643 -158.944C382.758 -164.675 385.38 -168.449 389.077 -170.665C393.278 -173.186 396.098 -173.394 396.944 -172.967C397.278 -172.696 397.098 -172.269 396.83 -170.666C396.489 -168.628 396.976 -166.06 398.195 -163.992C400.439 -160.184 403.868 -159.285 402.181 -153.482C401.455 -150.984 399.258 -149.549 396.972 -149.355ZM331.795 -75.6538L326.902 -73.3692C326.963 -73.516 327.018 -73.6633 327.082 -73.8097C330.245 -81.0069 336.931 -85.5609 344.229 -86.3478L340.689 -82.2961C337.166 -81.0956 334.022 -78.8123 331.795 -75.6538ZM354.66 -84.8235C354.772 -84.7771 354.884 -84.7356 354.994 -84.687C362.293 -81.4866 366.877 -74.6696 367.572 -67.2643L363.573 -70.8548C362.401 -74.4511 360.105 -77.6678 356.9 -79.9389L354.66 -84.8235ZM361.552 -55.5073L366.219 -57.6379C366.109 -57.3573 365.997 -57.0775 365.875 -56.7991C362.58 -49.2988 355.459 -44.6692 347.807 -44.1809L351.372 -48.0114C355.471 -49.1727 359.131 -51.7772 361.552 -55.5073ZM336.335 -50.4686L338.466 -45.716C338.298 -45.7845 338.13 -45.8484 337.963 -45.9214C330.449 -49.2164 325.815 -56.3442 325.337 -64.0008L329.156 -60.5117C330.267 -56.5027 332.758 -52.9069 336.335 -50.4686ZM325.044 -71.253L338.269 -76.6633L347.522 -87.6347C348.808 -89.1847 351.152 -88.8266 351.916 -86.9631L357.331 -73.7507L368.332 -64.6387C369.883 -63.3531 369.504 -60.8793 367.639 -60.1162L354.414 -54.7055L345.293 -43.7147C344.006 -42.1647 341.531 -42.5431 340.767 -44.4061L335.352 -57.6185L324.351 -66.731C322.8 -68.0161 323.178 -70.4899 325.044 -71.253ZM358.347 -62.9666C359.591 -62.2495 362.145 -62.0392 362.145 -62.0392C363.206 -61.9238 363.71 -63.3283 362.405 -63.7342C361.649 -63.9689 359.31 -64.1274 358.503 -63.9833C358.503 -63.9833 357.232 -63.609 358.347 -62.9666ZM348.042 -81.2213C348.042 -81.2213 347.48 -78.7267 347.793 -77.3286C348.073 -76.0759 348.809 -77.1727 348.809 -77.1727C349.188 -77.8979 349.734 -80.1722 349.737 -80.9632C349.739 -82.3267 348.249 -82.2654 348.042 -81.2213ZM344.833 -48.9443C345.069 -49.701 345.228 -52.0416 345.085 -52.8483C345.085 -52.8483 344.711 -54.1181 344.068 -53.0028C343.35 -51.7582 343.139 -49.2033 343.139 -49.2033C343.024 -48.1425 344.428 -47.6389 344.833 -48.9443ZM345.308 -64.9603C345.122 -63.3031 345.23 -62.1928 345.68 -62.1234C346.345 -62.0225 346.788 -63.3504 347.048 -64.7026C348.626 -64.5333 349.669 -64.6261 349.73 -65.0279C349.821 -65.6189 348.577 -66.0341 347.269 -66.2914C347.373 -67.5094 347.33 -68.8936 346.734 -69.0089C346.16 -69.1201 345.77 -67.7111 345.546 -66.5404C344.328 -66.6503 342.947 -66.6274 342.84 -66.081C342.735 -65.5562 344.138 -65.181 345.308 -64.9603ZM330.098 -66.9368C330.098 -66.9368 332.599 -66.3751 334 -66.6873C335.256 -66.9666 334.156 -67.703 334.156 -67.703C333.429 -68.081 331.15 -68.6278 330.357 -68.6296C328.99 -68.6332 329.052 -67.1436 330.098 -66.9368ZM379.763 -65.2306L382.181 -61.8158C384.001 -60.3423 383.703 -58.3991 381.526 -57.537L378.069 -54.9041C377.843 -54.2757 377.603 -53.6492 377.33 -53.0289C370.912 -38.4201 353.858 -31.7738 339.239 -38.1841C327.62 -43.2795 321.044 -55.0888 322.054 -67.0558C322.196 -66.8751 322.357 -66.7031 322.548 -66.5481L323.031 -66.1071C322.717 -56.8041 327.998 -47.815 337.051 -43.8453C337.939 -43.4556 338.84 -43.1327 339.746 -42.8602L339.838 -42.6548C340.738 -40.5255 344.075 -40.0156 345.571 -41.7795L345.668 -41.8831C354.986 -41.5633 363.992 -46.8398 367.968 -55.8892C368.409 -56.8919 368.767 -57.9095 369.058 -58.9338L369.154 -58.9775C371.331 -59.8405 371.898 -63.5396 370.079 -65.0135L369.948 -65.1301C370.014 -74.2115 364.765 -82.8938 355.912 -86.7753C355.06 -87.1487 354.197 -87.4613 353.329 -87.7271L352.788 -88.9068C351.887 -91.0369 348.706 -91.5225 347.21 -89.759L346.329 -88.7505C337.36 -88.687 328.833 -83.4677 324.995 -74.7318C324.601 -73.8363 324.276 -72.9286 324.002 -72.0151L323.338 -71.7052C323.127 -71.6219 322.938 -71.5151 322.76 -71.398C323.156 -73.0304 323.691 -74.6511 324.39 -76.2425C330.808 -90.8509 347.862 -97.4976 362.481 -91.0874C373.123 -86.4217 379.533 -76.1232 379.763 -65.2306ZM331.391 -129.269L324.967 -126.641L320.538 -121.302C319.913 -120.549 318.71 -120.733 318.339 -121.638L315.71 -128.055L310.366 -132.481C309.613 -133.106 309.796 -134.307 310.703 -134.677L317.125 -137.305L321.62 -142.634C322.245 -143.387 323.383 -143.212 323.754 -142.308L326.384 -135.891L331.727 -131.464C332.481 -130.84 332.297 -129.639 331.391 -129.269ZM277.07 -210.75L272.156 -208.455C272.214 -208.597 272.268 -208.741 272.331 -208.883C275.491 -216.077 282.175 -220.629 289.47 -221.419L285.936 -217.374C282.425 -216.173 279.292 -213.897 277.07 -210.75ZM299.921 -219.891C300.031 -219.845 300.141 -219.805 300.249 -219.758C307.547 -216.558 312.131 -209.745 312.831 -202.344L308.819 -205.946C307.648 -209.541 305.355 -212.755 302.152 -215.025L299.921 -219.891ZM306.78 -190.583L311.49 -192.733C311.378 -192.444 311.262 -192.155 311.136 -191.868C307.838 -184.363 300.706 -179.732 293.044 -179.251L296.646 -183.12C300.724 -184.282 304.365 -186.874 306.78 -190.583ZM281.577 -185.581L283.727 -180.785C283.557 -180.854 283.387 -180.919 283.218 -180.993C275.696 -184.292 271.058 -191.429 270.585 -199.092L274.431 -195.579C275.541 -191.59 278.021 -188.012 281.577 -185.581ZM270.297 -206.338L283.522 -211.749L292.775 -222.719C294.061 -224.269 296.406 -223.911 297.169 -222.047L302.584 -208.836L313.585 -199.724C315.137 -198.44 314.758 -195.966 312.892 -195.203L299.668 -189.793L290.547 -178.801C289.26 -177.252 286.784 -177.63 286.02 -179.494L280.606 -192.706L269.605 -201.817C268.053 -203.101 268.432 -205.576 270.297 -206.338ZM303.6 -198.053C304.844 -197.336 307.398 -197.125 307.398 -197.125C308.459 -197.011 308.964 -198.415 307.659 -198.82C306.902 -199.055 304.563 -199.213 303.756 -199.069C303.756 -199.069 302.486 -198.694 303.6 -198.053ZM293.295 -216.307C293.295 -216.307 292.734 -213.812 293.046 -212.413C293.326 -211.16 294.063 -212.258 294.063 -212.258C294.441 -212.983 294.988 -215.258 294.99 -216.048C294.992 -217.412 293.502 -217.351 293.295 -216.307ZM290.087 -184.032C290.322 -184.788 290.481 -187.128 290.338 -187.935C290.338 -187.935 289.964 -189.206 289.321 -188.09C288.603 -186.846 288.392 -184.29 288.392 -184.29C288.277 -183.23 289.681 -182.726 290.087 -184.032ZM290.561 -200.046C290.375 -198.389 290.482 -197.28 290.933 -197.211C291.599 -197.109 292.041 -198.436 292.301 -199.788C293.879 -199.618 294.923 -199.712 294.984 -200.114C295.075 -200.705 293.83 -201.12 292.522 -201.377C292.626 -202.595 292.583 -203.979 291.987 -204.094C291.414 -204.206 291.023 -202.797 290.799 -201.626C289.581 -201.736 288.201 -201.713 288.093 -201.166C287.989 -200.642 289.391 -200.267 290.561 -200.046ZM275.352 -202.023C275.352 -202.023 277.852 -201.461 279.253 -201.772C280.509 -202.053 279.409 -202.788 279.409 -202.788C278.682 -203.166 276.403 -203.713 275.611 -203.715C274.244 -203.719 274.305 -202.229 275.352 -202.023ZM326.779 -192.624L323.322 -189.99C323.096 -189.361 322.855 -188.733 322.582 -188.11C316.165 -173.505 299.112 -166.861 284.493 -173.272C272.872 -178.367 266.296 -190.178 267.307 -202.143C267.449 -201.962 267.61 -201.789 267.802 -201.634L268.277 -201.201C267.951 -191.886 273.232 -182.881 282.294 -178.908C283.191 -178.515 284.099 -178.19 285.013 -177.916L285.091 -177.742C285.992 -175.612 289.327 -175.103 290.824 -176.866L290.9 -176.947C300.222 -176.623 309.235 -181.903 313.214 -190.958C313.657 -191.966 314.017 -192.99 314.309 -194.02L314.407 -194.065C316.584 -194.928 317.151 -198.626 315.331 -200.098L315.195 -200.22C315.254 -209.296 310.007 -217.969 301.161 -221.848C300.312 -222.219 299.454 -222.531 298.59 -222.796L298.042 -223.991C297.14 -226.12 293.959 -226.607 292.463 -224.843L291.571 -223.822C282.604 -223.756 274.079 -218.535 270.241 -209.799C269.85 -208.909 269.526 -208.007 269.253 -207.1L268.591 -206.791C268.38 -206.708 268.191 -206.601 268.013 -206.483C268.409 -208.114 268.943 -209.732 269.642 -211.322C276.058 -225.926 293.111 -232.57 307.73 -226.159C318.367 -221.496 324.777 -211.206 325.013 -200.321L327.435 -196.902C329.254 -195.43 328.956 -193.486 326.779 -192.624ZM280.045 -96.2247C274.21 -82.9433 258.681 -76.9124 245.359 -82.7537C232.038 -88.5951 225.969 -104.097 231.804 -117.378C237.639 -130.659 253.168 -136.69 266.49 -130.849C279.811 -125.008 285.88 -109.506 280.045 -96.2247ZM264.848 -127.162C253.565 -132.11 240.424 -127.027 235.496 -115.811C230.568 -104.594 235.72 -91.4901 247.002 -86.5433C258.285 -81.5956 271.426 -86.6784 276.354 -97.8949C281.282 -109.112 276.131 -122.216 264.848 -127.162ZM247.938 -88.6383C237.809 -93.0801 233.181 -104.835 237.601 -114.895C242.021 -124.955 253.814 -129.51 263.943 -125.068C274.071 -120.628 278.699 -108.873 274.279 -98.8125C269.859 -88.7518 258.066 -84.1969 247.938 -88.6383ZM263.842 -115.104C262.516 -117.355 261.985 -120.15 262.357 -122.368C262.649 -124.112 262.845 -124.576 262.482 -124.872C261.56 -125.336 258.491 -125.11 253.919 -122.368C249.896 -119.954 247.042 -115.848 246.917 -109.609C246.886 -108.066 245.465 -107.213 244.502 -108.347C243.638 -109.365 243.445 -109.649 243.517 -110.119C243.6 -110.664 243.727 -111.097 243.184 -111.18C242.722 -111.251 242.248 -110.654 242.248 -110.654C240.869 -109.416 239.484 -107.674 238.806 -105.32C236.808 -98.3936 242.136 -91.8297 253.988 -90.7639C253.988 -90.7639 255.034 -90.5946 255.142 -90.9252C255.202 -91.1072 254.354 -91.8833 254.354 -91.8833C253.436 -93.1481 251.786 -94.9004 252.337 -98.0066C253.171 -102.703 258.397 -104.684 260.461 -102.152C261.151 -101.306 261.049 -100.649 260.546 -100.196C260.546 -100.196 260.191 -99.6665 260.176 -99.8453C260.219 -99.3183 261.603 -99.0976 262.512 -99.1755C265 -99.3863 267.391 -100.949 268.181 -103.666C270.017 -109.982 266.285 -110.959 263.842 -115.104ZM270.646 -103.227C270.646 -103.227 270.533 -103.743 270.321 -103.776C270.051 -103.817 270.149 -103.304 270.149 -103.304C269.305 -100.936 267.347 -96.5094 263.263 -96.2886C256.269 -95.9098 256.176 -91.4468 256.341 -90.9657C256.351 -90.9346 257.188 -92.1306 258.372 -92.2126C260.115 -92.3324 263.068 -90.9013 264.219 -90.9797C268.789 -91.2878 272.155 -97.6418 270.646 -103.227ZM239.389 -169.61L232.966 -166.982L228.536 -161.644C227.911 -160.89 226.708 -161.075 226.338 -161.98L223.708 -168.397L218.364 -172.823C217.61 -173.447 217.794 -174.648 218.7 -175.019L225.124 -177.646L229.618 -182.975C230.243 -183.728 231.381 -183.554 231.752 -182.649L234.382 -176.232L239.725 -171.806C240.479 -171.182 240.295 -169.98 239.389 -169.61ZM195.177 -213.892C181.856 -219.734 175.786 -235.232 181.619 -248.51C187.453 -261.788 202.98 -267.816 216.302 -261.975C229.624 -256.134 235.693 -240.635 229.86 -227.357C224.026 -214.08 208.498 -208.052 195.177 -213.892ZM214.678 -258.295C203.389 -263.246 190.243 -258.168 185.316 -246.955C180.39 -235.741 185.548 -222.638 196.838 -217.69C208.127 -212.739 221.273 -217.816 226.199 -229.029C231.126 -240.242 225.967 -253.345 214.678 -258.295ZM212.909 -223.219C211.851 -223.148 209.137 -224.462 207.536 -224.351C206.448 -224.276 205.679 -223.178 205.67 -223.207C205.519 -223.648 205.604 -227.748 212.03 -228.097C215.782 -228.301 217.581 -232.369 218.357 -234.543C218.357 -234.543 218.266 -235.015 218.515 -234.976C218.71 -234.947 218.814 -234.474 218.814 -234.474C220.201 -229.34 217.107 -223.502 212.909 -223.219ZM211.34 -230.749C210.505 -230.679 209.232 -230.881 209.194 -231.366C209.206 -231.202 209.534 -231.687 209.534 -231.687C209.996 -232.104 210.089 -232.707 209.455 -233.486C207.558 -235.811 202.756 -233.992 201.991 -229.676C201.484 -226.823 203.001 -225.212 203.844 -224.049C203.844 -224.049 204.623 -223.337 204.568 -223.169C204.468 -222.866 203.508 -223.021 203.508 -223.021C192.617 -224.001 187.722 -230.031 189.557 -236.396C190.181 -238.558 191.454 -240.16 192.721 -241.297C192.721 -241.297 193.155 -241.845 193.581 -241.781C194.079 -241.704 193.963 -241.306 193.886 -240.805C193.82 -240.374 193.997 -240.112 194.79 -239.178C195.676 -238.135 196.982 -238.918 197.01 -240.337C197.125 -246.069 199.748 -249.843 203.444 -252.06C207.645 -254.58 210.465 -254.788 211.311 -254.361C211.646 -254.09 211.466 -253.664 211.197 -252.061C210.856 -250.022 211.343 -247.454 212.562 -245.386C214.807 -241.578 218.236 -240.679 216.549 -234.877C215.823 -232.379 213.626 -230.943 211.34 -230.749ZM146.144 -157.043L141.273 -154.769C141.333 -154.914 141.388 -155.061 141.452 -155.205C144.613 -162.401 151.297 -166.953 158.594 -167.742L155.067 -163.705C151.53 -162.505 148.376 -160.214 146.144 -157.043ZM169.028 -166.221C169.141 -166.173 169.256 -166.13 169.37 -166.081C176.674 -162.878 181.26 -156.057 181.954 -148.648L177.929 -152.263C176.757 -155.852 174.466 -159.062 171.27 -161.331L169.028 -166.221ZM175.9 -136.895L180.607 -139.044C180.496 -138.758 180.381 -138.473 180.257 -138.19C176.96 -130.685 169.829 -126.054 162.168 -125.572L165.749 -129.419C169.835 -130.581 173.483 -133.179 175.9 -136.895ZM150.704 -131.863L152.833 -127.113C152.668 -127.181 152.503 -127.243 152.339 -127.315C144.822 -130.611 140.186 -137.739 139.707 -145.396L143.512 -141.92C144.622 -137.904 147.118 -134.708 150.704 -131.863ZM139.411 -152.65L152.636 -158.06L161.889 -169.032C163.176 -170.582 165.519 -170.224 166.283 -168.36L171.698 -155.148L182.699 -146.036C184.251 -144.75 183.872 -142.276 182.006 -141.513L168.782 -136.102L159.661 -125.112C158.374 -123.561 155.898 -123.94 155.134 -125.803L149.72 -139.015L138.719 -148.128C137.167 -149.413 137.546 -151.887 139.411 -152.65ZM172.714 -144.363C173.958 -143.646 176.512 -143.436 176.512 -143.436C177.573 -143.32 178.078 -144.726 176.773 -145.131C176.016 -145.366 173.677 -145.525 172.87 -145.38C172.87 -145.38 171.6 -145.006 172.714 -144.363ZM162.41 -162.618C162.41 -162.618 161.847 -160.123 162.16 -158.726C162.441 -157.472 163.177 -158.57 163.177 -158.57C163.555 -159.295 164.102 -161.569 164.104 -162.36C164.106 -163.723 162.616 -163.662 162.41 -162.618ZM159.201 -130.342C159.436 -131.098 159.595 -133.438 159.451 -134.245C159.451 -134.245 159.078 -135.515 158.435 -134.4C157.718 -133.156 157.506 -130.601 157.506 -130.601C157.391 -129.539 158.795 -129.036 159.201 -130.342ZM159.675 -146.358C159.489 -144.701 159.597 -143.59 160.048 -143.521C160.713 -143.419 161.155 -144.747 161.415 -146.1C162.993 -145.93 164.037 -146.023 164.098 -146.425C164.189 -147.016 162.944 -147.431 161.636 -147.689C161.741 -148.906 161.698 -150.29 161.102 -150.405C160.528 -150.517 160.137 -149.109 159.913 -147.938C158.696 -148.048 157.315 -148.025 157.207 -147.478C157.103 -146.953 158.505 -146.578 159.675 -146.358ZM144.466 -148.334C144.466 -148.334 146.967 -147.772 148.367 -148.084C149.623 -148.364 148.523 -149.1 148.523 -149.1C147.796 -149.478 145.517 -150.025 144.725 -150.027C143.358 -150.029 143.419 -148.541 144.466 -148.334ZM194.144 -146.608L196.549 -143.212C198.368 -141.739 198.071 -139.796 195.894 -138.933L192.459 -136.317C192.231 -135.681 191.988 -135.048 191.712 -134.42C185.294 -119.811 168.237 -113.166 153.615 -119.578C141.993 -124.674 135.415 -136.484 136.424 -148.45C136.566 -148.271 136.725 -148.1 136.915 -147.946L137.412 -147.492C137.099 -138.192 142.378 -129.206 151.427 -125.239C152.313 -124.85 153.21 -124.528 154.114 -124.256L154.205 -124.052C155.106 -121.923 158.442 -121.413 159.938 -123.177L160.033 -123.278C169.351 -122.955 178.361 -128.233 182.337 -137.285C182.778 -138.288 183.137 -139.307 183.428 -140.332L183.521 -140.374C185.698 -141.238 186.264 -144.937 184.445 -146.41L184.319 -146.524C184.386 -155.606 179.138 -164.288 170.288 -168.169C169.433 -168.544 168.568 -168.857 167.697 -169.124L167.156 -170.304C166.255 -172.433 163.073 -172.92 161.576 -171.156L160.691 -170.143C151.73 -170.073 143.212 -164.853 139.377 -156.122C138.986 -155.232 138.662 -154.33 138.389 -153.422L137.705 -153.103C137.496 -153.02 137.308 -152.914 137.131 -152.798C137.526 -154.429 138.061 -156.049 138.76 -157.638C145.178 -172.247 162.235 -178.892 176.857 -172.481C187.505 -167.812 193.919 -157.506 194.144 -146.608ZM145.759 -210.664L139.335 -208.036L134.905 -202.697C134.28 -201.945 133.078 -202.128 132.706 -203.034L130.076 -209.451L124.734 -213.876C123.98 -214.501 124.164 -215.702 125.07 -216.072L131.493 -218.7L135.987 -224.028C136.612 -224.781 137.751 -224.607 138.121 -223.702L140.752 -217.286L146.095 -212.86C146.848 -212.236 146.664 -211.034 145.759 -210.664ZM91.3958 -292.126L86.5262 -289.853C86.5848 -289.994 86.638 -290.137 86.7003 -290.278C89.861 -297.473 96.5439 -302.025 103.838 -302.816L100.322 -298.791C96.7838 -297.592 93.6272 -295.299 91.3958 -292.126ZM114.289 -301.288C114.397 -301.243 114.505 -301.203 114.613 -301.156C121.906 -297.958 126.488 -291.148 127.188 -283.749L123.185 -287.344C122.013 -290.934 119.721 -294.146 116.523 -296.416L114.289 -301.288ZM121.151 -271.979L125.842 -274.121C125.731 -273.836 125.618 -273.551 125.493 -273.268C122.197 -265.764 115.071 -261.133 107.415 -260.649L111.015 -264.517C115.095 -265.678 118.737 -268.27 121.151 -271.979ZM95.9465 -266.971L98.0941 -262.18C97.9227 -262.25 97.7509 -262.315 97.5809 -262.39C90.0611 -265.687 85.4261 -272.823 84.954 -280.485L88.7752 -276.995C89.8875 -272.994 92.376 -269.406 95.9465 -266.971ZM84.6641 -287.734L97.8898 -293.145L107.142 -304.116C108.429 -305.666 110.773 -305.308 111.537 -303.444L116.951 -290.231L127.952 -281.12C129.504 -279.835 129.125 -277.361 127.26 -276.597L114.035 -271.187L104.914 -260.196C103.627 -258.646 101.151 -259.025 100.387 -260.887L94.9731 -274.1L83.9715 -283.212C82.42 -284.498 82.7988 -286.971 84.6641 -287.734ZM117.968 -279.448C119.212 -278.73 121.766 -278.519 121.766 -278.519C122.826 -278.405 123.332 -279.81 122.026 -280.216C121.269 -280.45 118.93 -280.608 118.124 -280.465C118.124 -280.465 116.853 -280.09 117.968 -279.448ZM107.663 -297.703C107.663 -297.703 107.1 -295.208 107.414 -293.809C107.693 -292.556 108.43 -293.655 108.43 -293.655C108.808 -294.379 109.356 -296.654 109.357 -297.444C109.36 -298.807 107.87 -298.746 107.663 -297.703ZM104.455 -265.426C104.69 -266.182 104.849 -268.523 104.705 -269.329C104.705 -269.329 104.332 -270.6 103.688 -269.484C102.971 -268.24 102.759 -265.684 102.759 -265.684C102.644 -264.624 104.048 -264.12 104.455 -265.426ZM104.929 -281.442C104.743 -279.784 104.85 -278.674 105.301 -278.605C105.966 -278.503 106.409 -279.831 106.668 -281.184C108.247 -281.014 109.29 -281.108 109.351 -281.509C109.442 -282.101 108.198 -282.516 106.89 -282.773C106.994 -283.991 106.951 -285.374 106.355 -285.49C105.781 -285.601 105.391 -284.193 105.167 -283.022C103.949 -283.132 102.568 -283.109 102.46 -282.562C102.356 -282.038 103.758 -281.662 104.929 -281.442ZM89.7189 -283.419C89.7189 -283.419 92.22 -282.856 93.6209 -283.168C94.8766 -283.448 93.7764 -284.184 93.7764 -284.184C93.05 -284.562 90.7695 -285.109 89.9782 -285.111C88.6107 -285.115 88.6729 -283.625 89.7189 -283.419ZM141.147 -274.018L137.712 -271.401C137.484 -270.764 137.24 -270.128 136.963 -269.499C130.547 -254.893 113.489 -248.252 98.8624 -254.665C87.2337 -259.764 80.6526 -271.58 81.6653 -283.549C81.8091 -283.364 81.9732 -283.188 82.1684 -283.03L82.6347 -282.604C82.3087 -273.287 87.5953 -264.278 96.6634 -260.301C97.5593 -259.909 98.4669 -259.584 99.3809 -259.31L99.4584 -259.136C100.359 -257.007 103.695 -256.497 105.192 -258.26L105.264 -258.338C114.595 -258.009 123.616 -263.288 127.596 -272.346C128.041 -273.359 128.402 -274.388 128.695 -275.423L128.774 -275.459C130.952 -276.322 131.518 -280.021 129.699 -281.494L129.576 -281.604C129.635 -290.684 124.383 -299.362 115.53 -303.244C114.681 -303.616 113.822 -303.928 112.957 -304.193L112.409 -305.388C111.508 -307.518 108.327 -308.004 106.83 -306.24L105.939 -305.221C96.9659 -305.157 88.4366 -299.937 84.5978 -291.199C84.2055 -290.306 83.8804 -289.401 83.6068 -288.49L82.9588 -288.188C82.7429 -288.102 82.549 -287.993 82.3677 -287.871C82.7632 -289.506 83.2984 -291.129 83.9986 -292.722C90.4151 -307.327 107.474 -313.969 122.099 -307.556C132.746 -302.887 139.161 -292.588 139.394 -281.697L141.802 -278.297C143.621 -276.824 143.324 -274.88 141.147 -274.018ZM94.4022 -177.626C88.5669 -164.345 73.0349 -158.315 59.71 -164.157C46.3855 -170.001 40.3135 -185.504 46.1488 -198.783C51.9837 -212.064 67.5157 -218.094 80.8406 -212.252C94.1655 -206.41 100.237 -190.907 94.4022 -177.626ZM79.2174 -208.557C67.9278 -213.508 54.781 -208.428 49.8528 -197.212C44.9247 -185.996 50.0819 -172.89 61.3715 -167.939C72.6611 -162.989 85.808 -168.069 90.7357 -179.286C95.6638 -190.502 90.5066 -203.607 79.2174 -208.557ZM62.2945 -170.04C52.1659 -174.481 47.538 -186.237 51.958 -196.297C56.3775 -206.355 68.1713 -210.91 78.2999 -206.469C88.428 -202.028 93.0559 -190.273 88.6364 -180.214C84.2164 -170.154 72.4231 -165.599 62.2945 -170.04ZM78.2097 -196.501C76.8837 -198.751 76.353 -201.545 76.7236 -203.763C77.0162 -205.507 77.2119 -205.972 76.8485 -206.267C75.9273 -206.732 72.8586 -206.505 68.2867 -203.763C64.263 -201.35 61.4094 -197.245 61.2836 -191.006C61.2525 -189.462 59.8327 -188.61 58.8691 -189.744C58.0052 -190.762 57.8127 -191.047 57.8844 -191.516C57.9678 -192.061 58.0941 -192.494 57.5517 -192.577C57.0882 -192.648 56.6156 -192.051 56.6156 -192.051C55.2364 -190.813 53.8522 -189.07 53.1727 -186.717C51.1753 -179.791 56.5034 -173.227 68.3561 -172.161C68.3561 -172.161 69.4013 -171.992 69.5099 -172.323C69.569 -172.505 68.7222 -173.28 68.7222 -173.28C67.8038 -174.545 66.1536 -176.297 66.7045 -179.404C67.5378 -184.1 72.7635 -186.081 74.8277 -183.549C75.5184 -182.703 75.4169 -182.046 74.9129 -181.593C74.9129 -181.593 74.5576 -181.064 74.5436 -181.242C74.5855 -180.716 75.9702 -180.495 76.8796 -180.573C79.3671 -180.782 81.7586 -182.346 82.5485 -185.063C84.3836 -191.378 80.6521 -192.357 78.2097 -196.501ZM85.0135 -184.624C85.0135 -184.624 84.8999 -185.14 84.6889 -185.173C84.4174 -185.214 84.5171 -184.701 84.5171 -184.701C83.6721 -182.335 81.7148 -177.907 77.6303 -177.686C70.6367 -177.307 70.5438 -172.844 70.7084 -172.363C70.7183 -172.332 71.556 -173.527 72.7396 -173.61C74.4818 -173.729 77.436 -172.297 78.5866 -172.376C83.1563 -172.684 86.5231 -179.039 85.0135 -184.624ZM53.7561 -251.004L47.3324 -248.376L42.9025 -243.038C42.278 -242.285 41.0751 -242.468 40.704 -243.374L38.0744 -249.791L32.7315 -254.217C31.9776 -254.841 32.1616 -256.042 33.0674 -256.413L39.4907 -259.04L43.9855 -264.37C44.61 -265.123 45.7484 -264.948 46.1195 -264.043L48.7495 -257.626L54.092 -253.201C54.8463 -252.576 54.6624 -251.374 53.7561 -251.004ZM4.55407 -94.463L-0.31636 -92.1891C-0.258644 -92.3283 -0.205894 -92.4689 -0.145027 -92.6076C3.01566 -99.8012 9.69638 -104.354 16.9894 -105.145L13.4743 -101.122C9.9385 -99.9228 6.78413 -97.6328 4.55407 -94.463ZM27.4512 -103.615C27.5563 -103.571 27.6622 -103.531 27.7673 -103.485C35.0576 -100.289 39.6385 -93.4846 40.3415 -86.0897L36.3381 -89.6851C35.1662 -93.2675 32.8776 -96.4729 29.6862 -98.7404L27.4512 -103.615ZM34.3091 -74.3165L39.0001 -76.4579C38.8883 -76.17 38.7733 -75.8831 38.648 -75.598C35.3511 -68.0936 28.2236 -63.4626 20.5667 -62.9788L24.1778 -66.8589C28.256 -68.0202 31.896 -70.6102 34.3091 -74.3165ZM9.09986 -69.3179L11.256 -64.5076C11.0824 -64.5783 10.9084 -64.6445 10.7357 -64.7202C3.2127 -68.0188 -1.42372 -75.1597 -1.89174 -82.8262L1.9358 -79.3299C3.04858 -75.3349 5.53429 -71.7516 9.09986 -69.3179ZM-2.17805 -90.0712L11.0477 -95.481L20.3002 -106.452C21.5866 -108.002 23.9307 -107.645 24.6945 -105.781L30.1092 -92.5684L41.1102 -83.4559C42.6617 -82.1713 42.283 -79.6974 40.4177 -78.9348L27.1929 -73.5241L18.0715 -62.5329C16.7851 -60.9829 14.3089 -61.3608 13.5451 -63.2243L8.13091 -76.4367L-2.87061 -85.5491C-4.42209 -86.8338 -4.04335 -89.3081 -2.17805 -90.0712ZM31.1254 -81.7839C32.3694 -81.0672 34.9241 -80.8569 34.9241 -80.8569C35.9842 -80.742 36.4896 -82.1461 35.1834 -82.5519C34.4268 -82.7866 32.0876 -82.9456 31.2814 -82.8014C31.2814 -82.8014 30.0113 -82.4271 31.1254 -81.7839ZM20.821 -100.039C20.821 -100.039 20.2578 -97.5445 20.5712 -96.1458C20.8512 -94.8936 21.5875 -95.9904 21.5875 -95.9904C21.9662 -96.7161 22.5136 -98.9904 22.515 -99.7809C22.5177 -101.144 21.0271 -101.083 20.821 -100.039ZM17.6121 -67.7625C17.8474 -68.5188 18.0066 -70.8589 17.8628 -71.666C17.8628 -71.666 17.4894 -72.9359 16.846 -71.821C16.1287 -70.5769 15.9172 -68.0219 15.9172 -68.0219C15.8018 -66.9607 17.2058 -66.4562 17.6121 -67.7625ZM18.0864 -83.7785C17.9006 -82.1208 18.0079 -81.0109 18.4584 -80.942C19.1243 -80.8402 19.5666 -82.1681 19.8263 -83.5208C21.4044 -83.351 22.4482 -83.4447 22.5091 -83.846C22.5997 -84.4375 21.3557 -84.8523 20.0477 -85.1091C20.1514 -86.3271 20.1086 -87.7113 19.5125 -87.8271C18.9386 -87.9383 18.5485 -86.5293 18.3245 -85.3582C17.1071 -85.4685 15.726 -85.4456 15.6178 -84.8992C15.5141 -84.3744 16.9164 -83.9992 18.0864 -83.7785ZM2.87679 -85.755C2.87679 -85.755 5.37738 -85.1924 6.77872 -85.505C8.03398 -85.7861 6.93428 -86.5212 6.93428 -86.5212C6.20791 -86.8992 3.92735 -87.4464 3.1356 -87.4478C1.76852 -87.4509 1.83029 -85.9622 2.87679 -85.755ZM52.5482 -84.0388L54.96 -80.6339C56.7793 -79.1605 56.4817 -77.2164 54.3049 -76.3551L50.8696 -73.7385C50.6401 -73.098 50.3961 -72.4602 50.1184 -71.8282C43.7015 -57.223 26.6432 -50.5817 12.0175 -56.9951C0.385674 -62.0955 -6.19585 -73.9164 -5.17912 -85.8888C-5.03439 -85.7027 -4.86981 -85.5262 -4.67368 -85.3672L-4.20702 -84.9411C-4.5312 -75.6263 0.755836 -66.6197 9.82397 -62.6436C10.7176 -62.2518 11.6235 -61.9275 12.5351 -61.654L12.6163 -61.4729C13.5172 -59.3432 16.8528 -58.8329 18.3497 -60.5968L18.4277 -60.6806C27.7565 -60.3518 36.775 -65.6274 40.7531 -74.6818C41.1986 -75.6953 41.5602 -76.7241 41.8533 -77.7601L41.9322 -77.7961C44.1095 -78.6592 44.6758 -82.3573 42.856 -83.8312L42.7325 -83.9424C42.7884 -93.0184 37.5365 -101.693 28.6848 -105.574C27.8385 -105.945 26.9814 -106.257 26.1189 -106.521L25.5665 -107.725C24.6657 -109.855 21.4847 -110.341 19.9878 -108.578L19.0914 -107.552C10.1198 -107.488 1.59267 -102.27 -2.24478 -93.536C-2.63705 -92.6427 -2.96169 -91.7374 -3.23537 -90.8261L-3.88374 -90.5238C-4.10016 -90.4378 -4.29449 -90.3279 -4.4762 -90.2067C-4.08077 -91.8396 -3.54603 -93.4612 -2.84671 -95.0531C3.57024 -109.658 20.6285 -116.299 35.2542 -109.885C45.8968 -105.22 52.3119 -94.926 52.5482 -84.0388ZM12.8368 -157.868L6.41306 -155.24L1.98314 -149.902C1.35867 -149.149 0.155724 -149.332 -0.215355 -150.238L-2.84535 -156.655L-8.18786 -161.08C-8.94218 -161.705 -8.75777 -162.906 -7.85195 -163.277L-1.42869 -165.905L3.06571 -171.233C3.69019 -171.986 4.8291 -171.813 5.19973 -170.907L7.82973 -164.49L13.1727 -160.064C13.9266 -159.44 13.743 -158.239 12.8368 -157.868ZM7.55695 20.0461C1.72208 33.327 -13.8104 39.3575 -27.1348 33.5153C-40.4597 27.6717 -46.5313 12.1692 -40.6964 -1.11212C-34.8616 -14.3935 -19.3291 -20.424 -6.00468 -14.5808C7.32023 -8.73859 13.3918 6.76523 7.55695 20.0461ZM-36.987 0.447754C-41.912 11.658 -36.7521 24.7586 -25.4629 29.7086C-14.1733 34.6589 -1.02876 29.5843 3.89623 18.3745C8.82122 7.16476 3.66177 -5.93594 -7.62786 -10.8859C-18.9175 -15.8362 -32.0621 -10.762 -36.987 0.447754ZM1.79377 17.4525C-2.62713 27.5158 -14.4222 32.0739 -24.5508 27.6325C-34.679 23.1916 -39.3059 11.4332 -34.8846 1.36935C-30.4632 -8.694 -18.6686 -13.2516 -8.54 -8.81024C1.58862 -4.36887 6.21512 7.3891 1.79377 17.4525ZM-8.63243 1.16486C-9.95892 -1.08557 -10.4892 -3.88055 -10.1185 -6.09854C-9.82635 -7.84265 -9.63023 -8.30753 -9.99364 -8.60257C-10.9148 -9.06699 -13.9835 -8.84085 -18.5559 -6.09854C-22.5791 -3.68597 -25.4327 0.421631 -25.5585 6.65982C-25.5897 8.20349 -27.0099 9.05664 -27.9735 7.92151C-28.8369 6.9053 -29.0294 6.61972 -28.9577 6.15036C-28.8748 5.60486 -28.7485 5.172 -29.2905 5.08957C-29.754 5.01794 -30.2265 5.61478 -30.2265 5.61478C-31.6058 6.85306 -32.99 8.59583 -33.6695 10.9489C-35.6669 17.8759 -30.3388 24.4388 -18.486 25.5055C-18.486 25.5055 -17.4409 25.674 -17.3322 25.3433C-17.2736 25.1613 -18.1199 24.3857 -18.1199 24.3857C-19.0383 23.1208 -20.689 21.3686 -20.1376 18.2628C-19.3044 13.5656 -14.0791 11.585 -12.0145 14.1165C-11.3237 14.9642 -11.4252 15.62 -11.9293 16.0732C-11.9293 16.0732 -12.2846 16.602 -12.2985 16.4241C-12.2566 16.9502 -10.872 17.1705 -9.96297 17.0939C-7.47501 16.8835 -5.08399 15.3209 -4.29359 12.6025C-2.4585 6.28775 -6.19 5.30893 -8.63243 1.16486ZM-1.82861 13.0417C-1.82861 13.0417 -1.94224 12.5259 -2.15325 12.4931C-2.42468 12.4521 -2.32549 12.9651 -2.32549 12.9651C-3.17044 15.3318 -5.12772 19.7596 -9.21181 19.9803C-16.2054 20.3601 -16.2983 24.8221 -16.1342 25.3037C-16.1238 25.3339 -15.2861 24.1388 -14.103 24.0569C-12.3603 23.9366 -9.40614 25.3686 -8.25549 25.2906C-3.6858 24.9816 -0.319061 18.6268 -1.82861 13.0417ZM-33.086 -53.3406L-39.5097 -50.7132L-43.9396 -45.375C-44.5641 -44.6219 -45.7671 -44.8056 -46.1381 -45.711L-48.7681 -52.1276L-54.1106 -56.5537C-54.865 -57.1775 -54.6806 -58.3789 -53.7747 -58.7496L-47.3515 -61.3775L-42.8571 -66.7057C-42.2322 -67.4589 -41.0937 -67.2855 -40.7226 -66.3805L-38.0931 -59.9631L-32.7501 -55.5374C-31.9962 -54.9131 -32.1797 -53.7109 -33.086 -53.3406ZM-74.0058 39.7985L-80.4291 42.4255L-84.8594 47.7646C-85.4839 48.5173 -86.6869 48.334 -87.0575 47.4286L-89.6875 41.0107L-95.0304 36.5851C-95.7843 35.9607 -95.6004 34.7603 -94.6941 34.3887L-88.2708 31.7612L-83.7764 26.4325C-83.1519 25.6798 -82.0135 25.8532 -81.6424 26.7591L-79.0124 33.1761L-73.6695 37.6017C-72.9156 38.2264 -73.0995 39.4278 -74.0058 39.7985ZM-2.69205 74.7304L3.73167 72.103L8.2256 66.7742C8.85052 66.0215 9.989 66.1954 10.3596 67.0999L12.9901 73.5178L18.333 77.9435C19.0869 78.5673 18.9025 79.7691 17.9967 80.1403L11.5734 82.7681L7.14349 88.1068C6.51856 88.8595 5.31561 88.6753 4.94453 87.7699L2.31499 81.3524L-3.02842 76.9268C-3.78139 76.3029 -3.59788 75.1012 -2.69205 74.7304ZM38.2273 -18.4087L44.651 -21.0362L49.145 -26.3649C49.7699 -27.1176 50.9088 -26.9433 51.279 -26.0388L53.9094 -19.6213L59.2528 -15.1957C60.0062 -14.5714 59.8218 -13.3696 58.9165 -12.9994L52.4928 -10.3715L48.0628 -5.03281C47.4379 -4.28012 46.235 -4.46387 45.8643 -5.36926L43.2343 -11.7863L37.8909 -16.2119C37.138 -16.8362 37.3215 -18.0371 38.2273 -18.4087ZM59.3006 40.6237L54.4302 42.8971C54.4897 42.7538 54.5438 42.6093 54.6065 42.4665C57.7672 35.2729 64.4501 30.7207 71.7454 29.9307L68.2204 33.9657C64.6846 35.1643 61.5302 37.4539 59.3006 40.6237ZM82.1897 31.4545C82.301 31.5013 82.4137 31.5428 82.5246 31.5914C89.8253 34.7927 94.4104 41.6097 95.107 49.0146L91.0837 45.4007C89.9119 41.8192 87.6237 38.6152 84.4332 36.3481L82.1897 31.4545ZM89.0548 60.7721L93.7647 58.6216C93.6524 58.9099 93.5374 59.1973 93.4121 59.4829C90.1139 66.9891 82.9818 71.6197 75.32 72.1007L78.9239 68.2287C83.0017 67.0674 86.6412 64.4774 89.0548 60.7721ZM63.8469 65.7707L65.9953 70.5629C65.828 70.4944 65.6599 70.4309 65.4935 70.358C57.9741 67.0607 53.3372 59.9279 52.8611 52.2672L56.6819 55.7573C57.7947 59.7527 60.2808 63.3365 63.8469 65.7707ZM52.569 45.0164L65.7938 39.6057L75.0468 28.6342C76.3336 27.0847 78.6773 27.4424 79.4411 29.3063L84.8557 42.5183L95.8568 51.6303C97.4087 52.9163 97.0295 55.3902 95.1642 56.1532L81.9394 61.5635L72.819 72.5548C71.5317 74.1052 69.0559 73.7259 68.2917 71.8633L62.8775 58.6501L51.8759 49.5385C50.3244 48.2529 50.7032 45.7791 52.569 45.0164ZM85.872 53.3028C87.1155 54.0195 89.6702 54.2307 89.6702 54.2307C90.7311 54.346 91.2357 52.9411 89.9308 52.5348C89.1734 52.3001 86.8342 52.1416 86.0276 52.2857C86.0276 52.2857 84.757 52.6605 85.872 53.3028ZM75.5675 35.0472C75.5675 35.0472 75.0053 37.5427 75.3182 38.9404C75.5986 40.194 76.3345 39.0972 76.3345 39.0972C76.7132 38.3711 77.2601 36.0968 77.2619 35.3062C77.2642 33.9427 75.774 34.004 75.5675 35.0472ZM72.3582 67.3247C72.5935 66.5684 72.7531 64.2279 72.6093 63.4207C72.6093 63.4207 72.2355 62.1509 71.5926 63.2653C70.8757 64.5108 70.6637 67.0657 70.6637 67.0657C70.5488 68.1265 71.9528 68.6305 72.3582 67.3247ZM72.8329 51.3087C72.6472 52.9659 72.7545 54.0762 73.2049 54.1451C73.8704 54.2469 74.3132 52.9191 74.5724 51.5664C76.151 51.7366 77.1948 51.6429 77.2556 51.2411C77.3467 50.6502 76.1023 50.2349 74.7943 49.9772C74.8984 48.7601 74.8556 47.3759 74.2595 47.2601C73.6855 47.1489 73.2951 48.5578 73.071 49.7285C71.8532 49.6191 70.4726 49.6416 70.3648 50.1884C70.2607 50.7128 71.6629 51.088 72.8329 51.3087ZM57.6238 49.3317C57.6238 49.3317 60.1244 49.8943 61.5248 49.5813C62.781 49.302 61.6804 48.5664 61.6804 48.5664C60.954 48.188 58.6748 47.6407 57.8826 47.6394C56.5155 47.6358 56.5768 49.1254 57.6238 49.3317ZM50.0729 49.72L50.567 50.1714C50.2514 59.4753 55.5303 68.4652 64.5813 72.4341C65.4696 72.8237 66.3696 73.1467 67.2754 73.4187L67.3633 73.6142C68.2641 75.7444 71.5993 76.2538 73.0958 74.4899L73.1846 74.3944C82.5048 74.7178 91.5148 69.4404 95.492 60.3874C95.9339 59.382 96.2932 58.3618 96.5849 57.3343L96.6787 57.2915C98.856 56.4284 99.4223 52.7289 97.603 51.256L97.4732 51.1393C97.5368 42.0611 92.2898 33.3833 83.4422 29.5032C82.59 29.1298 81.727 28.8167 80.8582 28.5509L80.3131 27.3626C79.4122 25.2325 76.2312 24.746 74.7343 26.5095L73.8429 27.5298C64.883 27.6019 56.3667 32.8207 52.5315 41.5498C52.1415 42.4381 51.8178 43.3381 51.545 44.244L50.8628 44.5624C50.6536 44.6458 50.4656 44.7516 50.2888 44.8678C50.6842 43.2372 51.2186 41.6174 51.9174 40.0278C58.3339 25.4221 75.3894 18.7803 90.012 25.1915C100.658 29.8604 107.072 40.162 107.301 51.0565L109.707 54.4532C111.525 55.9266 111.229 57.8708 109.051 58.7329L105.617 61.3495C105.388 61.9851 105.145 62.6189 104.87 63.2468C98.453 77.852 81.3974 84.4942 66.7749 78.0831C55.1543 72.9872 48.5759 61.1802 49.5823 49.2164C49.7234 49.3957 49.883 49.5664 50.0729 49.72ZM90.9386 115.786L97.3623 113.159L101.857 107.829C102.481 107.076 103.62 107.251 103.991 108.156L106.621 114.573L111.964 118.999C112.717 119.623 112.533 120.825 111.627 121.196L105.204 123.823L100.774 129.162C100.15 129.915 98.9467 129.731 98.5756 128.826L95.946 122.408L90.6022 117.982C89.8483 117.358 90.0327 116.157 90.9386 115.786ZM98.4155 -114.898L93.9856 -109.561C93.3607 -108.807 92.1577 -108.992 91.7871 -109.897L89.1571 -116.313L83.8137 -120.739C83.0603 -121.363 83.2443 -122.565 84.1505 -122.935L90.5738 -125.563L95.0677 -130.891C95.6927 -131.644 96.8316 -131.471 97.2018 -130.566L99.8322 -124.149L105.176 -119.723C105.929 -119.098 105.745 -117.896 104.839 -117.526L98.4155 -114.898ZM94.7819 -50.8582C100.617 -64.14 116.146 -70.171 129.468 -64.3297C142.789 -58.4888 148.858 -42.9867 143.023 -29.7058C137.188 -16.4245 121.659 -10.3931 108.337 -16.2335C95.0159 -22.0753 88.947 -37.5769 94.7819 -50.8582ZM139.357 -31.3648C144.285 -42.5813 139.128 -55.6874 127.838 -60.6378C116.549 -65.5882 103.402 -60.5076 98.4737 -49.2911C93.546 -38.0742 98.7032 -24.9685 109.992 -20.0186C121.282 -15.0678 134.429 -20.1474 139.357 -31.3648ZM102.715 -38.7327C103.339 -40.8953 104.611 -42.4962 105.879 -43.6336C105.879 -43.6336 106.312 -44.1826 106.738 -44.1178C107.237 -44.0403 107.121 -43.643 107.045 -43.1421C106.978 -42.7115 107.155 -42.4494 107.948 -41.5151C108.834 -40.4724 110.139 -41.2557 110.168 -42.6741C110.283 -48.4065 112.906 -52.179 116.602 -54.3969C120.803 -56.9167 123.623 -57.1253 124.47 -56.6982C124.804 -56.4271 124.624 -56.0001 124.355 -54.3969C124.013 -52.3587 124.501 -49.7907 125.72 -47.7232C127.965 -43.9142 131.393 -43.016 129.706 -37.2134C128.981 -34.7162 126.784 -33.2797 124.498 -33.086C123.663 -33.0157 122.39 -33.218 122.352 -33.7022C122.364 -33.5382 122.691 -34.0238 122.691 -34.0238C123.154 -34.44 123.247 -35.0441 122.613 -35.822C120.716 -38.1485 115.914 -36.3288 115.149 -32.0126C114.641 -29.1595 116.159 -27.5487 117.002 -26.3861C117.002 -26.3861 117.78 -25.674 117.726 -25.5064C117.626 -25.2023 116.666 -25.3573 116.666 -25.3573C105.775 -26.3379 100.88 -32.368 102.715 -38.7327ZM125.188 -30.4342C128.94 -30.6378 130.739 -34.7058 131.515 -36.8801C131.515 -36.8801 131.424 -37.3517 131.673 -37.313C131.867 -37.2837 131.972 -36.8098 131.972 -36.8098C133.358 -31.6779 130.265 -25.8392 126.067 -25.5559C125.009 -25.4843 122.295 -26.7991 120.694 -26.6888C119.606 -26.6131 118.836 -25.5154 118.827 -25.5428C118.676 -25.9852 118.762 -30.0856 125.188 -30.4342ZM131.858 22.6474L138.282 20.0195L142.776 14.6912C143.4 13.9376 144.539 14.1115 144.91 15.0169L147.54 21.4339L152.883 25.8595C153.636 26.4843 153.452 27.6866 152.547 28.0564L146.124 30.6838L141.693 36.0229C141.069 36.7751 139.866 36.5913 139.495 35.6864L136.865 29.2689L131.522 24.8438C130.768 24.2195 130.952 23.0182 131.858 22.6474ZM179.645 66.8233C192.966 72.6642 199.035 88.1663 193.2 101.448C187.365 114.729 171.836 120.76 158.514 114.919C145.193 109.078 139.124 93.5761 144.959 80.2948C150.794 67.0134 166.323 60.9824 179.645 66.8233ZM160.168 111.105C171.451 116.052 184.589 110.975 189.514 99.7652C194.439 88.5555 189.285 75.4574 178.003 70.5098C166.72 65.5634 153.581 70.64 148.656 81.8492C143.731 93.059 148.885 106.158 160.168 111.105ZM177.103 72.5917C187.232 77.0327 191.858 88.791 187.437 98.8544C183.015 108.917 171.221 113.476 161.092 109.034C150.964 104.593 146.337 92.8351 150.758 82.7713C155.18 72.7079 166.974 68.1508 177.103 72.5917ZM169.498 106.701C169.509 106.731 170.346 105.535 171.53 105.455C173.273 105.333 176.226 106.765 177.377 106.687C181.946 106.378 185.313 100.024 183.804 94.4382C183.804 94.4382 183.69 93.9229 183.479 93.89C183.208 93.8491 183.307 94.3621 183.307 94.3621C182.463 96.7296 180.505 101.157 176.421 101.377C169.427 101.757 169.334 106.219 169.498 106.701ZM167.146 106.902C167.146 106.902 168.192 107.071 168.3 106.741C168.359 106.559 167.512 105.783 167.512 105.783C166.594 104.518 164.944 102.766 165.495 99.6598C166.328 94.963 171.554 92.9824 173.619 95.5134C174.309 96.3603 174.207 97.017 173.703 97.4702C173.703 97.4702 173.349 97.999 173.334 97.8211C173.376 98.3477 174.761 98.5684 175.67 98.4913C178.157 98.2805 180.549 96.7179 181.339 93.9991C183.174 87.6852 179.443 86.7068 177 82.5618C175.674 80.3105 175.143 77.5164 175.515 75.2993C175.807 73.5543 176.003 73.0899 175.639 72.7944C174.718 72.3296 171.649 72.5566 167.077 75.2993C163.054 77.711 160.199 81.8186 160.075 88.0568C160.043 89.601 158.623 90.4536 157.66 89.319C156.795 88.3014 156.603 88.0167 156.674 87.5469C156.758 87.0019 156.885 86.569 156.342 86.4861C155.88 86.4154 155.406 87.0122 155.406 87.0122C154.027 88.2505 152.642 89.9923 151.964 92.3459C149.965 99.2728 155.293 105.836 167.146 106.902ZM182.941 156.128L189.364 153.5L193.858 148.171C194.483 147.418 195.621 147.592 195.992 148.497L198.622 154.915L203.966 159.341C204.72 159.964 204.535 161.167 203.629 161.537L197.206 164.165L192.776 169.503C192.151 170.256 190.948 170.072 190.578 169.167L187.948 162.75L182.604 158.324C181.851 157.7 182.034 156.498 182.941 156.128ZM190.229 -13.0854L185.314 -10.7908C185.371 -10.9309 185.425 -11.0719 185.486 -11.2115C188.646 -18.4051 195.328 -22.9573 202.622 -23.7478L199.089 -19.7033C195.58 -18.5038 192.449 -16.2299 190.229 -13.0854ZM213.084 -22.2177C213.191 -22.1731 213.298 -22.1335 213.404 -22.0866C220.698 -18.8885 225.282 -12.0809 225.984 -4.68372L221.972 -8.28726C220.801 -11.8728 218.511 -15.0795 215.318 -17.3466L213.084 -22.2177ZM219.938 7.08322L224.648 4.9328C224.534 5.22424 224.418 5.51526 224.291 5.80399C220.993 13.3115 213.859 17.9425 206.196 18.4218L209.809 14.5403C213.885 13.3791 217.524 10.7886 219.938 7.08322ZM194.731 12.0751L196.889 16.8898C196.717 16.8195 196.544 16.7538 196.373 16.6786C188.847 13.3791 184.208 6.23685 183.739 -1.4306L187.591 2.08871C188.703 6.07245 191.18 9.64539 194.731 12.0751ZM183.455 -8.67419L196.68 -14.084L205.933 -25.0555C207.219 -26.6064 209.563 -26.2483 210.327 -24.3843L215.741 -11.1714L226.743 -2.05942C228.295 -0.773865 227.916 1.69955 226.051 2.46304L212.826 7.87332L203.704 18.8646C202.418 20.415 199.942 20.0366 199.178 18.1727L193.763 4.9603L182.763 -4.15173C181.211 -5.43686 181.59 -7.91113 183.455 -8.67419ZM216.758 -0.38736C218.002 0.329742 220.556 0.540558 220.556 0.540558C221.617 0.655426 222.122 -0.75 220.816 -1.15494C220.059 -1.38962 217.721 -1.54816 216.914 -1.40402C216.914 -1.40402 215.644 -1.02969 216.758 -0.38736ZM206.453 -18.6429C206.453 -18.6429 205.891 -16.1475 206.204 -14.7493C206.484 -13.4958 207.221 -14.5939 207.221 -14.5939C207.599 -15.3191 208.146 -17.5934 208.148 -18.3835C208.15 -19.7479 206.66 -19.6862 206.453 -18.6429ZM203.245 13.6345C203.48 12.8777 203.639 10.5381 203.495 9.73093C203.495 9.73093 203.122 8.46069 202.479 9.57645C201.761 10.8201 201.55 13.375 201.55 13.375C201.435 14.4363 202.839 14.9403 203.245 13.6345ZM203.719 -2.38147C203.533 -0.723846 203.64 0.386047 204.091 0.454956C204.757 0.556763 205.199 -0.771149 205.459 -2.12338C207.037 -1.95401 208.08 -2.04773 208.142 -2.44907C208.233 -3.0405 206.988 -3.45535 205.68 -3.7121C205.784 -4.93008 205.741 -6.3143 205.145 -6.42963C204.572 -6.54089 204.181 -5.1319 203.957 -3.96118C202.739 -4.07153 201.359 -4.04858 201.25 -3.5022C201.147 -2.97742 202.549 -2.60263 203.719 -2.38147ZM188.509 -4.35757C188.509 -4.35757 191.01 -3.79678 192.411 -4.10803C193.667 -4.38821 192.567 -5.12378 192.567 -5.12378C191.84 -5.50171 189.561 -6.04944 188.769 -6.05078C187.401 -6.0535 187.463 -4.56479 188.509 -4.35757ZM192.047 -73.8426L187.616 -68.5044C186.992 -67.7517 185.789 -67.935 185.418 -68.8409L182.788 -75.2579L177.444 -79.6835C176.69 -80.3078 176.875 -81.5096 177.781 -81.8803L184.204 -84.5073L188.699 -89.8365C189.323 -90.5887 190.462 -90.4153 190.833 -89.5104L193.463 -83.0929L198.806 -78.6668C199.559 -78.043 199.375 -76.8416 198.469 -76.4714L192.047 -73.8426ZM180.463 -4.48102C180.605 -4.29904 180.767 -4.12607 180.959 -3.97021L181.435 -3.53552C181.111 5.77695 186.393 14.7791 195.454 18.7524C196.349 19.1447 197.255 19.4696 198.168 19.743L198.249 19.9236C199.15 22.0533 202.485 22.5632 203.982 20.8001L204.063 20.7141C213.384 21.0375 222.395 15.7606 226.371 6.70801C226.815 5.69992 227.175 4.67651 227.467 3.6459L227.565 3.60132C229.742 2.73782 230.308 -0.961212 228.489 -2.43417L228.352 -2.55759C228.407 -11.63 223.16 -20.2997 214.315 -24.1776C213.47 -24.5487 212.613 -24.8595 211.751 -25.1244L211.2 -26.328C210.299 -28.4572 207.117 -28.9433 205.62 -27.1798L204.724 -26.1532C195.757 -26.0865 187.235 -20.8677 183.398 -12.1345C183.008 -11.2449 182.684 -10.3431 182.41 -9.43588L181.749 -9.12689C181.538 -9.04312 181.348 -8.93634 181.17 -8.81833C181.565 -10.4467 182.099 -12.0638 182.796 -13.6512C189.213 -28.2563 206.266 -34.8999 220.885 -28.4897C231.518 -23.8271 237.928 -13.5421 238.168 -2.66077L240.593 0.762604C242.412 2.23599 242.114 4.17923 239.937 5.04227L236.479 7.67603C236.252 8.30798 236.011 8.93814 235.737 9.56247C229.32 24.1672 212.267 30.8112 197.648 24.4005C186.024 19.3042 179.447 7.48862 180.463 -4.48102ZM223.86 62.9887L230.283 60.3608L234.778 55.0325C235.402 54.2789 236.541 54.4532 236.912 55.3586L239.542 61.7757L244.885 66.2017C245.639 66.826 245.455 68.0273 244.549 68.3976L238.125 71.0251L233.695 76.3642C233.071 77.1169 231.868 76.9331 231.497 76.0281L228.867 69.6107L223.524 65.1851C222.77 64.5608 222.954 63.3594 223.86 62.9887ZM244.952 122.013L240.059 124.297C240.119 124.152 240.174 124.007 240.237 123.863C243.399 116.666 250.085 112.113 257.381 111.325L253.843 115.374C250.32 116.574 247.177 118.855 244.952 122.013ZM267.823 112.852C267.931 112.898 268.041 112.938 268.149 112.986C275.445 116.184 280.028 122.997 280.725 130.398L276.729 126.809C275.556 123.22 273.263 120.009 270.064 117.74L267.823 112.852ZM274.707 142.161L279.376 140.029C279.266 140.311 279.153 140.593 279.03 140.874C275.735 148.374 268.612 153.005 260.959 153.492L264.548 149.636C268.638 148.477 272.29 145.879 274.707 142.161ZM249.479 147.164L251.628 151.96C251.458 151.891 251.287 151.826 251.118 151.751C243.6 148.455 238.965 141.322 238.491 133.662L242.326 137.165C243.439 141.154 245.92 144.732 249.479 147.164ZM238.202 126.413L251.426 121.003L260.679 110.032C261.966 108.481 264.31 108.839 265.074 110.703L270.488 123.915L281.49 133.028C283.041 134.313 282.662 136.787 280.797 137.55L267.572 142.961L258.451 153.951C257.164 155.501 254.689 155.123 253.925 153.26L248.51 140.047L237.509 130.935C235.958 129.651 236.336 127.176 238.202 126.413ZM271.505 134.7C272.749 135.416 275.303 135.628 275.303 135.628C276.363 135.743 276.868 134.338 275.563 133.932C274.806 133.698 272.468 133.539 271.661 133.682C271.661 133.682 270.39 134.057 271.505 134.7ZM261.2 116.445C261.2 116.445 260.638 118.94 260.95 120.337C261.231 121.591 261.967 120.494 261.967 120.494C262.345 119.768 262.892 117.494 262.894 116.703C262.897 115.34 261.407 115.401 261.2 116.445ZM257.991 148.722C258.227 147.965 258.386 145.625 258.242 144.819C258.242 144.819 257.869 143.547 257.226 144.663C256.508 145.907 256.297 148.463 256.297 148.463C256.181 149.523 257.585 150.027 257.991 148.722ZM258.466 132.706C258.28 134.363 258.388 135.473 258.838 135.543C259.503 135.644 259.946 134.316 260.206 132.963C261.784 133.133 262.827 133.039 262.888 132.639C262.979 132.047 261.734 131.632 260.427 131.375C260.531 130.157 260.488 128.772 259.892 128.658C259.318 128.546 258.928 129.955 258.704 131.126C257.486 131.016 256.105 131.039 255.997 131.585C255.893 132.11 257.296 132.485 258.466 132.706ZM243.256 130.728C243.256 130.728 245.757 131.291 247.157 130.979C248.414 130.699 247.313 129.964 247.313 129.964C246.587 129.585 244.307 129.038 243.515 129.036C242.148 129.033 242.209 130.522 243.256 130.728ZM235.706 131.117L236.186 131.556C235.869 140.862 241.15 149.857 250.206 153.827C251.096 154.218 251.999 154.541 252.908 154.814L252.995 155.011C253.896 157.141 257.232 157.651 258.729 155.887L258.82 155.789C268.139 156.11 277.147 150.833 281.123 141.784C281.564 140.779 281.923 139.76 282.215 138.733L282.311 138.689C284.489 137.825 285.055 134.126 283.236 132.653L283.103 132.534C283.165 123.455 277.917 114.778 269.067 110.897C268.217 110.524 267.357 110.212 266.49 109.947L265.946 108.759C265.045 106.629 261.864 106.143 260.367 107.906L259.48 108.922C250.512 108.987 241.987 114.206 238.15 122.941C237.757 123.834 237.432 124.74 237.158 125.651L236.496 125.96C236.285 126.044 236.096 126.15 235.919 126.267C236.314 124.636 236.849 123.015 237.548 121.424C243.965 106.819 261.018 100.175 275.637 106.585C286.276 111.251 292.687 121.545 292.919 132.434L295.339 135.85C297.158 137.324 296.861 139.267 294.684 140.129L291.227 142.762C291.001 143.391 290.761 144.017 290.488 144.637C284.071 159.244 267.018 165.887 252.399 159.476C240.781 154.382 234.204 142.574 235.213 130.611C235.355 130.791 235.515 130.963 235.706 131.117ZM276.571 197.184L282.994 194.555L287.489 189.227C288.113 188.474 289.252 188.648 289.623 189.553L292.253 195.97L297.596 200.396C298.35 201.02 298.166 202.222 297.259 202.593L290.837 205.22L286.406 210.559C285.782 211.311 284.579 211.128 284.208 210.222L281.578 203.805L276.235 199.38C275.482 198.756 275.665 197.554 276.571 197.184ZM284.048 -33.5017L279.618 -28.1631C278.993 -27.4099 277.79 -27.5946 277.42 -28.4996L274.79 -34.9166L269.447 -39.3422C268.693 -39.9661 268.877 -41.1678 269.783 -41.5381L276.206 -44.1665L280.7 -49.4943C281.325 -50.2475 282.464 -50.0745 282.834 -49.1691L285.464 -42.7516L290.808 -38.3255C291.562 -37.7012 291.378 -36.4999 290.471 -36.1292L284.048 -33.5017ZM280.413 30.5378C286.248 17.2565 301.777 11.2246 315.098 17.066C328.42 22.9073 334.489 38.4098 328.654 51.6907C322.819 64.972 307.289 71.003 293.968 65.1625C280.647 59.3207 274.578 43.8192 280.413 30.5378ZM325 50.0371C329.928 38.8197 324.771 25.7145 313.481 20.7641C302.192 15.8133 289.045 20.8929 284.117 32.1099C279.189 43.3268 284.346 56.433 295.635 61.3833C306.925 66.3333 320.072 61.2536 325 50.0371ZM288.348 42.6642C288.971 40.5021 290.244 38.8999 291.511 37.7634C291.511 37.7634 291.946 37.2152 292.371 37.2801C292.869 37.3558 292.754 37.7544 292.677 38.2553C292.61 38.6859 292.788 38.9481 293.581 39.8823C294.466 40.9246 295.772 40.1413 295.8 38.7229C295.915 32.991 298.538 29.218 302.235 27.0001C306.435 24.4807 309.256 24.2722 310.102 24.6987C310.436 24.9703 310.256 25.3969 309.987 26.9996C309.647 29.0383 310.134 31.6063 311.353 33.6747C313.597 37.4823 317.026 38.3814 315.339 44.1836C314.613 46.6808 312.416 48.1169 310.13 48.3105C309.295 48.3813 308.022 48.179 307.984 47.6948C307.997 47.8578 308.324 47.3732 308.324 47.3732C308.786 46.9565 308.88 46.3534 308.245 45.575C306.349 43.2485 301.547 45.0692 300.781 49.3835C300.275 52.2384 301.792 53.8483 302.635 55.0109C302.635 55.0109 303.413 55.7235 303.359 55.8906C303.259 56.1946 302.299 56.0402 302.299 56.0402C291.407 55.06 286.512 49.029 288.348 42.6642ZM310.821 50.9628C314.573 50.7592 316.372 46.6917 317.149 44.5174C317.149 44.5174 317.057 44.0453 317.307 44.0836C317.5 44.1133 317.605 44.5863 317.605 44.5863C318.991 49.7195 315.898 55.5582 311.699 55.842C310.642 55.9131 307.927 54.5974 306.326 54.7091C305.238 54.7843 304.469 55.8816 304.46 55.8546C304.309 55.4118 304.395 51.3119 310.821 50.9628ZM317.491 104.044L323.914 101.417L328.408 96.0882C329.033 95.3346 330.172 95.5085 330.542 96.4135L333.172 102.831L338.516 107.257C339.269 107.881 339.085 109.083 338.179 109.453L331.756 112.081L327.326 117.419C326.702 118.173 325.499 117.989 325.128 117.083L322.498 110.666L317.154 106.241C316.401 105.616 316.585 104.416 317.491 104.044ZM365.671 148.393C378.992 154.234 385.061 169.736 379.226 183.017C373.391 196.298 357.862 202.33 344.541 196.488C331.219 190.648 325.15 175.146 330.985 161.864C336.82 148.583 352.35 142.552 365.671 148.393ZM346.207 192.679C357.496 197.63 370.641 192.556 375.565 181.346C380.49 170.136 375.331 157.036 364.041 152.085C352.752 147.135 339.608 152.209 334.683 163.419C329.758 174.629 334.917 187.73 346.207 192.679ZM363.129 154.161C373.258 158.603 377.884 170.36 373.463 180.424C369.042 190.487 357.247 195.045 347.118 190.604C336.99 186.163 332.363 174.405 336.785 164.341C341.206 154.277 353.001 149.72 363.129 154.161ZM355.539 188.276C355.549 188.306 356.386 187.111 357.57 187.03C359.313 186.909 362.266 188.34 363.417 188.263C367.987 187.954 371.353 181.6 369.844 176.014C369.844 176.014 369.731 175.499 369.519 175.467C369.248 175.425 369.347 175.938 369.347 175.938C368.502 178.305 366.545 182.732 362.461 182.953C355.467 183.332 355.375 187.795 355.539 188.276ZM353.187 188.478C353.187 188.478 354.232 188.646 354.34 188.316C354.399 188.134 353.552 187.359 353.552 187.359C352.634 186.094 350.984 184.341 351.534 181.235C352.368 176.538 357.594 174.558 359.658 177.089C360.349 177.937 360.247 178.593 359.743 179.046C359.743 179.046 359.388 179.574 359.374 179.396C359.416 179.923 360.8 180.143 361.71 180.067C364.198 179.856 366.589 178.293 367.379 175.575C369.214 169.261 365.483 168.282 363.04 164.138C361.714 161.887 361.184 159.093 361.555 156.874C361.846 155.13 362.043 154.666 361.679 154.371C360.758 153.905 357.689 154.132 353.117 156.874C349.094 159.287 346.24 163.394 346.114 169.632C346.083 171.176 344.663 172.029 343.699 170.894C342.836 169.877 342.643 169.592 342.715 169.123C342.799 168.578 342.924 168.145 342.382 168.062C341.919 167.99 341.446 168.588 341.446 168.588C340.067 169.826 338.682 171.569 338.003 173.921C336.006 180.848 341.334 187.412 353.187 188.478ZM368.981 237.703L375.404 235.075L379.898 229.747C380.523 228.994 381.662 229.168 382.033 230.073L384.662 236.49L390.006 240.916C390.759 241.541 390.575 242.742 389.67 243.112L383.246 245.74L378.816 251.079C378.191 251.832 376.988 251.648 376.618 250.743L373.987 244.325L368.644 239.899C367.891 239.276 368.075 238.074 368.981 237.703ZM376.245 68.5013L371.352 70.7854C371.41 70.6449 371.463 70.5034 371.524 70.3634C374.685 63.168 381.369 58.6149 388.664 57.8253L385.137 61.8617C381.613 63.0608 378.47 65.3432 376.245 68.5013ZM399.124 59.3577C399.228 59.4014 399.333 59.4401 399.437 59.4856C406.726 62.6815 411.307 69.485 412.011 76.8795L408.021 73.2967C406.849 69.708 404.556 66.4977 401.357 64.2283L399.124 59.3577ZM405.998 88.6496L410.668 86.5172C410.557 86.8036 410.442 87.0897 410.317 87.3739C407.021 94.8761 399.896 99.5067 392.24 99.9922L395.842 96.1229C399.931 94.963 403.581 92.3667 405.998 88.6496ZM380.771 93.6518L382.929 98.4661C382.755 98.3945 382.579 98.3278 382.405 98.2517C374.882 94.9527 370.246 87.8109 369.777 80.1434L373.619 83.6533C374.731 87.6415 377.213 91.2194 380.771 93.6518ZM369.495 72.9012L382.72 67.4914L391.973 56.5199C393.259 54.9704 395.604 55.328 396.367 57.1915L401.782 70.4044L412.783 79.516C414.335 80.8011 413.956 83.2754 412.091 84.0388L398.866 89.4487L389.744 100.44C388.458 101.99 385.982 101.612 385.218 99.748L379.804 86.5356L368.802 77.4232C367.251 76.1385 367.63 73.6642 369.495 72.9012ZM402.798 81.188C404.042 81.9055 406.597 82.1154 406.597 82.1154C407.657 82.2308 408.162 80.8263 406.856 80.4209C406.1 80.1853 403.76 80.0272 402.954 80.1713C402.954 80.1713 401.684 80.5457 402.798 81.188ZM392.494 62.9329C392.494 62.9329 391.931 65.4274 392.244 66.8265C392.525 68.0796 393.26 66.9814 393.26 66.9814C393.639 66.2567 394.186 63.9824 394.188 63.1918C394.191 61.8283 392.7 61.8887 392.494 62.9329ZM389.285 95.2108C389.52 94.454 389.679 92.114 389.536 91.3063C389.536 91.3063 389.162 90.0365 388.519 91.1514C387.802 92.3959 387.59 94.9508 387.59 94.9508C387.475 96.0116 388.879 96.5161 389.285 95.2108ZM389.759 79.1939C389.573 80.8515 389.68 81.9623 390.131 82.0308C390.797 82.1326 391.239 80.8047 391.499 79.452C393.077 79.6213 394.12 79.5281 394.182 79.1272C394.273 78.5353 393.029 78.1205 391.721 77.8633C391.824 76.6457 391.781 75.2615 391.185 75.1457C390.611 75.034 390.221 76.4435 389.997 77.6142C388.78 77.5043 387.398 77.5268 387.291 78.0736C387.187 78.5979 388.589 78.9732 389.759 79.1939ZM374.549 77.2173C374.549 77.2173 377.05 77.7799 378.451 77.4673C379.707 77.1876 378.607 76.4507 378.607 76.4507C377.88 76.0741 375.601 75.5264 374.809 75.5246C373.441 75.5214 373.503 77.0115 374.549 77.2173ZM377.679 7.55441L373.248 12.8931C372.624 13.6458 371.421 13.4611 371.05 12.5561L368.42 6.1391L363.077 1.7135C362.324 1.08963 362.508 -0.11261 363.414 -0.48288L369.837 -3.11121L374.331 -8.43951C374.955 -9.1922 376.094 -9.0192 376.465 -8.11292L379.095 -1.69635L384.438 2.72971C385.192 3.35358 385.008 4.55533 384.102 4.92606L377.679 7.55441ZM366.513 77.1074C366.653 77.2844 366.811 77.4533 366.999 77.6056L367.463 78.029C367.138 87.3442 372.425 96.3508 381.493 100.327C382.388 100.72 383.295 101.044 384.208 101.318L384.289 101.499C385.19 103.629 388.525 104.139 390.022 102.375L390.101 102.291C399.428 102.619 408.445 97.3427 412.422 88.2892C412.867 87.2766 413.229 86.2492 413.521 85.2145L413.606 85.1762C415.782 84.3141 416.349 80.6146 414.529 79.1412L414.402 79.0272C414.457 69.9521 409.205 61.2784 400.354 57.3969C399.509 57.0266 398.653 56.7154 397.791 56.451L397.239 55.2469C396.339 53.1177 393.157 52.6317 391.66 54.3956L390.766 55.4195C381.792 55.4812 373.263 60.6996 369.425 69.435C369.032 70.3296 368.707 71.2359 368.433 72.1485L367.789 72.4489C367.583 72.5305 367.398 72.6341 367.224 72.748C367.619 71.1246 368.152 69.512 368.847 67.9292C375.264 53.324 392.317 46.6808 406.936 53.0911C417.573 57.755 423.983 68.0449 424.219 78.9304L426.633 82.3393C428.452 83.8118 428.154 85.756 425.978 86.6172L422.537 89.2383C422.308 89.8766 422.065 90.5126 421.788 91.1428C415.371 105.748 398.318 112.392 383.699 105.981C372.077 100.885 365.501 89.0743 366.513 77.1074ZM409.9 144.565L416.324 141.937L420.818 136.608C421.443 135.855 422.581 136.029 422.952 136.934L425.582 143.351L430.925 147.777C431.679 148.401 431.495 149.604 430.589 149.973L424.166 152.601L419.736 157.94C419.111 158.693 417.908 158.508 417.537 157.604L414.907 151.187L409.564 146.76C408.811 146.137 408.994 144.935 409.9 144.565ZM431.013 203.578L426.098 205.873C426.158 205.728 426.213 205.583 426.276 205.438C429.437 198.242 436.123 193.689 443.421 192.901L439.876 196.958C436.366 198.158 433.234 200.433 431.013 203.578ZM453.862 194.428C453.973 194.474 454.084 194.515 454.194 194.563C461.494 197.764 466.079 204.58 466.776 211.984L462.756 208.374C461.585 204.79 459.297 201.584 456.104 199.317L453.862 194.428ZM460.722 223.747L465.433 221.597C465.321 221.884 465.206 222.17 465.081 222.454C461.784 229.959 454.654 234.589 446.994 235.071L450.596 231.202C454.67 230.041 458.308 227.452 460.722 223.747ZM435.518 228.74L437.668 233.535C437.5 233.467 437.33 233.402 437.163 233.329C429.643 230.032 425.006 222.898 424.53 215.237L428.376 218.749C429.487 222.735 431.965 226.31 435.518 228.74ZM424.241 207.989L437.466 202.579L446.72 191.607C448.006 190.057 450.35 190.416 451.114 192.279L456.529 205.491L467.53 214.604C469.081 215.888 468.702 218.362 466.837 219.126L453.612 224.536L444.491 235.527C443.205 237.077 440.728 236.699 439.964 234.836L434.55 221.623L423.549 212.511C421.997 211.226 422.376 208.752 424.241 207.989ZM457.544 216.276C458.788 216.992 461.343 217.203 461.343 217.203C462.404 217.318 462.908 215.913 461.603 215.508C460.846 215.273 458.507 215.115 457.7 215.259C457.7 215.259 456.43 215.634 457.544 216.276ZM447.24 198.02C447.24 198.02 446.678 200.516 446.991 201.914C447.271 203.166 448.007 202.07 448.007 202.07C448.385 201.344 448.933 199.07 448.934 198.28C448.937 196.915 447.446 196.976 447.24 198.02ZM444.031 230.297C444.266 229.54 444.426 227.201 444.283 226.394C444.283 226.394 443.909 225.124 443.265 226.239C442.548 227.483 442.337 230.039 442.337 230.039C442.221 231.099 443.626 231.603 444.031 230.297ZM444.506 214.282C444.32 215.939 444.428 217.049 444.878 217.117C445.543 217.22 445.986 215.891 446.245 214.539C447.823 214.709 448.867 214.616 448.928 214.214C449.02 213.623 447.775 213.208 446.467 212.95C446.571 211.732 446.528 210.349 445.932 210.234C445.358 210.122 444.968 211.531 444.744 212.701C443.526 212.592 442.145 212.614 442.037 213.161C441.934 213.686 443.336 214.061 444.506 214.282ZM429.296 212.305C429.296 212.305 431.797 212.867 433.198 212.555C434.453 212.274 433.353 211.539 433.353 211.539C432.627 211.161 430.347 210.614 429.555 210.612C428.188 210.609 428.25 212.098 429.296 212.305ZM421.746 212.693L422.236 213.141C421.92 222.445 427.199 231.436 436.251 235.405C437.14 235.795 438.041 236.119 438.948 236.391L439.036 236.587C439.937 238.717 443.272 239.226 444.769 237.462L444.858 237.366C454.176 237.688 463.185 232.41 467.162 223.359C467.603 222.354 467.962 221.335 468.253 220.309L468.351 220.264C470.528 219.401 471.095 215.702 469.276 214.229L469.142 214.109C469.206 205.031 463.959 196.354 455.112 192.474C454.261 192.101 453.398 191.789 452.531 191.523L451.986 190.336C451.085 188.206 447.905 187.719 446.407 189.483L445.518 190.501C436.555 190.571 428.037 195.79 424.201 204.521C423.81 205.41 423.487 206.312 423.213 207.219L422.535 207.536C422.331 207.617 422.147 207.72 421.973 207.833C422.368 206.206 422.902 204.591 423.599 203.005C430.016 188.399 447.069 181.756 461.688 188.166C472.33 192.832 478.742 203.132 478.97 214.024L481.379 217.425C483.198 218.9 482.901 220.843 480.724 221.705L477.284 224.326C477.057 224.96 476.814 225.592 476.539 226.218C470.122 240.824 453.069 247.467 438.45 241.057C426.834 235.963 420.259 224.16 421.263 212.199C421.403 212.374 421.56 212.542 421.746 212.693ZM462.612 278.759L469.035 276.131L473.529 270.803C474.154 270.05 475.292 270.224 475.663 271.129L478.293 277.546L483.636 281.971C484.39 282.596 484.206 283.798 483.299 284.168L476.876 286.795L472.446 292.134C471.822 292.887 470.619 292.704 469.843 291.799L467.618 285.381L462.275 280.955C461.521 280.331 461.705 279.13 462.612 278.759ZM470.088 48.0741L465.658 53.4132C465.034 54.1659 463.831 53.9816 463.46 53.0762L460.83 46.6588L455.487 42.2336C454.733 41.6097 454.917 40.4075 455.823 40.0368L462.247 37.4094L466.741 32.0811C467.366 31.3279 468.504 31.5009 468.875 32.4076L471.505 38.8247L476.848 43.2498C477.602 43.8741 477.417 45.0759 476.512 45.4462L470.088 48.0741ZM466.439 112.107C472.274 98.826 487.806 92.7955 501.131 98.6386C514.456 104.481 520.527 119.985 514.692 133.265C508.858 146.546 493.326 152.577 480.001 146.734C466.676 140.892 460.604 125.389 466.439 112.107ZM511.026 131.607C515.954 120.389 510.797 107.284 499.508 102.334C488.218 97.3832 475.071 102.463 470.143 113.68C465.215 124.897 470.372 138.002 481.662 142.952C492.951 147.903 506.098 142.824 511.026 131.607ZM474.388 124.24C475.011 122.077 476.284 120.477 477.551 119.339C477.551 119.339 477.985 118.791 478.411 118.855C478.909 118.932 478.794 119.33 478.717 119.831C478.651 120.262 478.828 120.524 479.621 121.458C480.507 122.5 481.812 121.718 481.84 120.298C481.955 114.566 484.578 110.793 488.275 108.575C492.476 106.056 495.295 105.848 496.142 106.275C496.477 106.546 496.296 106.973 496.028 108.575C495.686 110.614 496.174 113.182 497.392 115.25C499.637 119.058 503.066 119.958 501.379 125.759C500.654 128.257 498.456 129.693 496.171 129.886C495.335 129.957 494.063 129.754 494.024 129.27C494.037 129.434 494.363 128.949 494.363 128.949C494.826 128.532 494.92 127.928 494.285 127.151C492.389 124.825 487.587 126.644 486.821 130.959C486.314 133.814 487.831 135.424 488.675 136.587C488.675 136.587 489.454 137.299 489.399 137.466C489.299 137.77 488.339 137.615 488.339 137.615C477.448 136.635 472.552 130.604 474.388 124.24ZM496.861 132.539C500.614 132.335 502.412 128.268 503.188 126.092C503.188 126.092 503.097 125.621 503.346 125.659C503.54 125.689 503.644 126.163 503.644 126.163C505.031 131.295 501.938 137.134 497.739 137.417C496.682 137.489 493.968 136.174 492.367 136.285C491.279 136.359 490.509 137.457 490.5 137.43C490.349 136.988 490.434 132.887 496.861 132.539ZM503.531 185.62L509.954 182.992L514.448 177.664C515.073 176.911 516.212 177.084 516.583 177.989L519.212 184.407L524.556 188.832C525.309 189.457 525.126 190.659 524.219 191.029L517.796 193.657L513.366 198.995C512.742 199.748 511.539 199.564 511.168 198.659L508.538 192.242L503.194 187.817C502.441 187.192 502.625 185.991 503.531 185.62ZM551.314 229.795C564.635 235.636 570.704 251.138 564.869 264.419C559.034 277.7 543.505 283.732 530.184 277.891C516.862 272.049 510.793 256.548 516.628 243.266C522.463 229.984 537.993 223.953 551.314 229.795ZM531.856 274.084C543.149 279.036 556.296 273.963 561.221 262.752C566.146 251.542 560.983 238.441 549.691 233.489C538.397 228.538 525.251 233.611 520.326 244.821C515.401 256.03 520.563 269.133 531.856 274.084ZM548.772 235.562C558.901 240.004 563.527 251.762 559.106 261.825C554.685 271.889 542.89 276.447 532.762 272.006C522.633 267.564 518.006 255.806 522.428 245.743C526.849 235.679 538.644 231.122 548.772 235.562ZM541.171 269.673C541.182 269.703 542.019 268.508 543.203 268.427C544.945 268.306 547.899 269.737 549.05 269.66C553.619 269.352 556.986 262.997 555.476 257.411C555.476 257.411 555.363 256.896 555.152 256.863C554.881 256.822 554.98 257.335 554.98 257.335C554.135 259.702 552.177 264.129 548.094 264.35C541.1 264.729 541.007 269.192 541.171 269.673ZM538.819 269.875C538.819 269.875 539.865 270.043 539.973 269.713C540.032 269.531 539.185 268.755 539.185 268.755C538.267 267.491 536.616 265.738 537.168 262.632C538.001 257.935 543.226 255.954 545.291 258.486C545.982 259.334 545.88 259.99 545.376 260.443C545.376 260.443 545.021 260.972 545.007 260.793C545.049 261.32 546.434 261.541 547.343 261.464C549.831 261.253 552.221 259.69 553.011 256.972C554.847 250.658 551.116 249.68 548.673 245.535C547.346 243.284 546.816 240.49 547.187 238.271C547.48 236.527 547.676 236.063 547.312 235.767C546.391 235.303 543.322 235.529 538.75 238.271C534.726 240.684 531.872 244.791 531.747 251.029C531.716 252.574 530.296 253.427 529.332 252.291C528.469 251.275 528.276 250.989 528.348 250.521C528.431 249.975 528.557 249.542 528.015 249.459C527.552 249.389 527.079 249.985 527.079 249.985C525.7 251.222 524.315 252.966 523.636 255.318C521.638 262.246 526.967 268.809 538.819 269.875ZM554.613 319.1L561.037 316.472L565.531 311.144C566.156 310.391 567.294 310.565 567.665 311.47L570.295 317.887L575.638 322.313C576.392 322.938 576.208 324.139 575.302 324.51L568.879 327.137L564.448 332.476C563.824 333.228 562.621 333.045 562.25 332.14L559.621 325.722L554.277 321.297C553.524 320.673 553.707 319.471 554.613 319.1ZM561.895 149.89L556.982 152.184C557.04 152.043 557.093 151.9 557.155 151.76C560.316 144.565 567 140.012 574.296 139.223L570.764 143.265C567.252 144.465 564.117 146.742 561.895 149.89ZM584.757 140.755C584.862 140.799 584.968 140.838 585.073 140.884C592.367 144.083 596.95 150.89 597.653 158.286L593.641 154.682C592.47 151.099 590.182 147.894 586.991 145.628L584.757 140.755ZM591.605 170.058L596.316 167.907C596.203 168.198 596.087 168.488 595.96 168.775C592.663 176.282 585.531 180.912 577.87 181.393L581.484 177.51C585.557 176.348 589.192 173.76 591.605 170.058ZM566.404 175.049L568.562 179.863C568.388 179.792 568.214 179.726 568.042 179.65C560.516 176.35 555.877 169.207 555.409 161.539L559.261 165.058C560.372 169.044 562.85 172.619 566.404 175.049ZM555.127 154.298L568.353 148.888L577.605 137.917C578.892 136.367 581.236 136.725 582 138.589L587.414 151.801L598.416 160.913C599.967 162.199 599.589 164.673 597.723 165.435L584.498 170.846L575.377 181.837C574.091 183.387 571.614 183.009 570.851 181.145L565.436 167.933L554.435 158.821C552.883 157.536 553.262 155.062 555.127 154.298ZM588.431 162.586C589.675 163.303 592.229 163.513 592.229 163.513C593.289 163.628 593.795 162.223 592.488 161.817C591.732 161.583 589.393 161.424 588.586 161.568C588.586 161.568 587.316 161.943 588.431 162.586ZM578.126 144.33C578.126 144.33 577.564 146.826 577.876 148.223C578.157 149.476 578.893 148.379 578.893 148.379C579.272 147.653 579.819 145.378 579.82 144.589C579.824 143.225 578.333 143.286 578.126 144.33ZM574.917 176.607C575.152 175.851 575.312 173.511 575.168 172.704C575.168 172.704 574.794 171.434 574.151 172.549C573.434 173.793 573.222 176.348 573.222 176.348C573.107 177.409 574.511 177.913 574.917 176.607ZM575.392 160.591C575.206 162.249 575.313 163.359 575.764 163.428C576.43 163.53 576.872 162.202 577.131 160.849C578.709 161.019 579.753 160.925 579.815 160.524C579.905 159.932 578.661 159.517 577.353 159.26C577.456 158.042 577.414 156.659 576.818 156.542C576.244 156.431 575.854 157.84 575.63 159.012C574.413 158.901 573.031 158.924 572.923 159.47C572.82 159.995 574.222 160.37 575.392 160.591ZM560.182 158.615C560.182 158.615 562.682 159.177 564.084 158.864C565.34 158.585 564.24 157.849 564.24 157.849C563.513 157.471 561.233 156.924 560.441 156.922C559.074 156.919 559.135 158.408 560.182 158.615ZM563.719 89.1298L559.289 94.468C558.665 95.2206 557.462 95.0378 557.091 94.1324L554.461 87.7149L549.117 83.2884C548.363 82.665 548.548 81.4637 549.454 81.092L555.877 78.4651L560.371 73.1367C560.996 72.3836 562.135 72.5575 562.505 73.4624L565.135 79.8799L570.479 84.3051C571.232 84.9298 571.049 86.1312 570.142 86.5014L563.719 89.1298ZM552.133 158.488C552.276 158.672 552.438 158.846 552.632 159.003L553.104 159.434C552.78 168.747 558.062 177.751 567.124 181.724C568.02 182.117 568.927 182.442 569.841 182.715L569.922 182.896C570.823 185.026 574.158 185.536 575.655 183.773L575.736 183.686C585.056 184.007 594.064 178.73 598.041 169.68C598.483 168.672 598.843 167.65 599.135 166.621L599.238 166.574C601.415 165.712 601.981 162.012 600.162 160.539L600.021 160.413C600.076 151.341 594.829 142.671 585.985 138.793C585.14 138.423 584.285 138.112 583.424 137.848L582.872 136.645C581.971 134.515 578.79 134.029 577.293 135.793L576.397 136.818C567.43 136.883 558.905 142.103 555.068 150.837C554.677 151.728 554.352 152.631 554.079 153.539L553.421 153.846C553.208 153.93 553.017 154.038 552.838 154.157C553.234 152.528 553.768 150.909 554.466 149.32C560.882 134.715 577.938 128.072 592.561 134.485C603.199 139.149 609.612 149.439 609.849 160.324L612.265 163.736C614.084 165.209 613.787 167.152 611.61 168.015L608.166 170.638C607.938 171.275 607.695 171.91 607.418 172.539C601.002 187.144 583.946 193.787 569.323 187.375C557.696 182.277 551.117 170.459 552.133 158.488ZM595.532 225.962L601.956 223.334L606.45 218.005C607.075 217.252 608.214 217.425 608.584 218.331L611.214 224.748L616.558 229.174C617.311 229.798 617.127 231 616.221 231.37L609.798 233.998L605.368 239.337C604.743 240.089 603.54 239.906 603.17 239.001L600.54 232.583L595.196 228.158C594.443 227.534 594.627 226.332 595.532 225.962ZM616.618 284.989L611.728 287.271C611.788 287.126 611.843 286.98 611.907 286.835C615.069 279.636 621.757 275.082 629.056 274.295L625.52 278.343C621.992 279.542 618.845 281.827 616.618 284.989ZM639.495 275.824C639.603 275.87 639.712 275.909 639.818 275.957C647.114 279.156 651.696 285.967 652.394 293.368L648.397 289.778C647.225 286.191 644.933 282.982 641.737 280.714L639.495 275.824ZM646.373 305.136L651.044 303.004C650.935 303.285 650.822 303.566 650.7 303.845C647.405 311.344 640.284 315.974 632.633 316.463L636.223 312.606C640.309 311.445 643.957 308.85 646.373 305.136ZM621.151 310.138L623.301 314.933C623.13 314.863 622.958 314.798 622.787 314.723C615.269 311.426 610.634 304.292 610.16 296.631L613.995 300.134C615.108 304.125 617.591 307.705 621.151 310.138ZM609.874 289.386L623.099 283.976L632.352 273.005C633.639 271.454 635.982 271.812 636.747 273.676L642.161 286.889L653.162 296.001C654.714 297.286 654.335 299.76 652.47 300.523L639.244 305.933L630.124 316.924C628.837 318.474 626.361 318.096 625.598 316.233L620.183 303.02L609.182 293.908C607.63 292.623 608.009 290.148 609.874 289.386ZM643.177 297.673C644.421 298.39 646.976 298.601 646.976 298.601C648.036 298.715 648.541 297.31 647.236 296.905C646.479 296.67 644.14 296.512 643.333 296.656C643.333 296.656 642.063 297.03 643.177 297.673ZM632.873 279.418C632.873 279.418 632.311 281.912 632.623 283.311C632.904 284.564 633.64 283.467 633.64 283.467C634.019 282.741 634.566 280.467 634.567 279.676C634.57 278.313 633.08 278.374 632.873 279.418ZM629.664 311.695C629.899 310.938 630.059 308.598 629.915 307.791C629.915 307.791 629.541 306.52 628.899 307.636C628.181 308.88 627.969 311.435 627.969 311.435C627.854 312.496 629.258 313 629.664 311.695ZM630.138 295.678C629.953 297.336 630.06 298.446 630.511 298.515C631.176 298.617 631.619 297.289 631.878 295.936C633.456 296.106 634.5 296.012 634.561 295.611C634.652 295.02 633.407 294.604 632.1 294.347C632.203 293.129 632.161 291.746 631.565 291.629C630.991 291.519 630.601 292.928 630.377 294.098C629.159 293.989 627.778 294.011 627.67 294.558C627.566 295.083 628.968 295.457 630.138 295.678ZM614.928 293.702C614.928 293.702 617.429 294.264 618.831 293.952C620.086 293.671 618.986 292.936 618.986 292.936C618.259 292.558 615.98 292.011 615.188 292.008C613.821 292.006 613.882 293.495 614.928 293.702ZM607.378 294.09L607.855 294.526C607.537 303.832 612.819 312.827 621.875 316.799C622.767 317.19 623.671 317.514 624.58 317.787L624.668 317.984C625.569 320.113 628.905 320.623 630.402 318.86L630.494 318.761C639.811 319.08 648.817 313.804 652.792 304.755C653.233 303.751 653.592 302.733 653.883 301.707L653.984 301.661C656.162 300.798 656.728 297.099 654.909 295.625L654.773 295.504C654.834 286.425 649.585 277.749 640.736 273.868C639.887 273.496 639.028 273.184 638.163 272.919L637.619 271.732C636.718 269.602 633.537 269.116 632.04 270.88L631.155 271.893C622.185 271.956 613.657 277.176 609.819 285.912C609.426 286.807 609.101 287.713 608.827 288.625L608.169 288.933C607.956 289.017 607.766 289.125 607.587 289.243C607.983 287.61 608.518 285.987 609.217 284.395C615.634 269.79 632.687 263.147 647.306 269.557C657.944 274.222 664.355 284.514 664.589 295.401L667.012 298.823C668.831 300.297 668.534 302.24 666.356 303.102L662.895 305.739C662.669 306.366 662.429 306.99 662.157 307.609C655.741 322.215 638.688 328.857 624.069 322.447C612.449 317.352 605.873 305.544 606.882 293.579C607.025 293.761 607.186 293.934 607.378 294.09ZM648.244 360.156L654.667 357.527L659.162 352.2C659.787 351.447 660.925 351.621 661.296 352.526L663.926 358.943L669.269 363.368C670.023 363.993 669.839 365.194 668.933 365.565L662.509 368.192L658.079 373.531C657.455 374.284 656.252 374.1 655.881 373.195L653.251 366.777L647.907 362.352C647.154 361.728 647.338 360.527 648.244 360.156ZM655.721 129.471L651.291 134.81C650.666 135.562 649.463 135.379 649.093 134.473L646.463 128.057L641.119 123.631C640.365 123.007 640.549 121.805 641.456 121.434L647.879 118.806L652.373 113.478C652.998 112.725 654.137 112.899 654.507 113.804L657.137 120.221L662.481 124.647C663.234 125.271 663.051 126.473 662.144 126.844L655.721 129.471ZM652.082 193.509C657.917 180.228 673.449 174.197 686.774 180.04C700.099 185.882 706.17 201.386 700.335 214.667C694.5 227.948 678.969 233.979 665.644 228.136C652.319 222.294 646.247 206.79 652.082 193.509ZM696.669 213.008C701.597 201.791 696.44 188.685 685.151 183.735C673.861 178.785 660.714 183.865 655.786 195.082C650.858 206.298 656.015 219.404 667.305 224.354C678.594 229.305 691.741 224.225 696.669 213.008ZM660.021 205.637C660.644 203.474 661.917 201.874 663.184 200.736C663.184 200.736 663.619 200.188 664.044 200.252C664.542 200.328 664.426 200.726 664.35 201.228C664.283 201.659 664.46 201.921 665.254 202.856C666.139 203.898 667.444 203.114 667.473 201.695C667.588 195.964 670.211 192.19 673.908 189.973C678.108 187.453 680.929 187.245 681.775 187.672C682.109 187.943 681.929 188.37 681.66 189.972C681.319 192.011 681.807 194.579 683.026 196.647C685.27 200.455 688.699 201.354 687.011 207.157C686.286 209.654 684.089 211.09 681.803 211.283C680.968 211.354 679.695 211.151 679.657 210.668C679.67 210.832 679.996 210.346 679.996 210.346C680.459 209.929 680.553 209.325 679.918 208.547C678.021 206.221 673.219 208.041 672.454 212.357C671.947 215.211 673.464 216.822 674.308 217.984C674.308 217.984 675.086 218.696 675.031 218.863C674.932 219.167 673.971 219.013 673.971 219.013C663.08 218.033 658.185 212.001 660.021 205.637ZM682.494 213.935C686.246 213.732 688.044 209.664 688.821 207.49C688.821 207.49 688.73 207.018 688.979 207.056C689.173 207.086 689.277 207.56 689.277 207.56C690.663 212.692 687.57 218.53 683.372 218.814C682.314 218.885 679.6 217.571 677.999 217.681C676.911 217.756 676.142 218.854 676.132 218.827C675.981 218.384 676.067 214.284 682.494 213.935ZM689.163 267.017L695.587 264.389L700.081 259.061C700.706 258.307 701.845 258.481 702.215 259.386L704.845 265.804L710.188 270.23C710.942 270.854 710.758 272.056 709.852 272.426L703.429 275.054L698.998 280.393C698.374 281.145 697.171 280.961 696.8 280.056L694.17 273.639L688.827 269.213C688.074 268.589 688.258 267.387 689.163 267.017ZM735.086 162.489L741.509 159.862L746.004 154.534C746.629 153.781 747.768 153.954 748.138 154.859L750.768 161.276L756.111 165.703C756.865 166.327 756.681 167.528 755.775 167.899L749.352 170.527L744.921 175.865C744.297 176.618 743.094 176.434 742.723 175.529L740.093 169.111L734.749 164.686C733.996 164.062 734.18 162.861 735.086 162.489Z" fill="#63A545"/>
</svg>
