<svg width="24" height="24" viewBox="0 0 24 24" fill="none" xmlns="http://www.w3.org/2000/svg">
<path d="M15.2695 1.71606C14.8552 1.70273 14.4804 1.79915 14.1309 1.95044C13.7926 2.09689 13.4571 2.30363 13.1211 2.52661C12.8046 2.73668 12.3804 3.03517 11.9727 3.30981C11.4502 3.66164 10.9651 4.00504 10.6113 4.26001C10.5164 4.3284 10.431 4.39118 10.3564 4.44556C9.93679 4.34501 9.2524 4.17325 8.54199 3.9397C7.60204 3.63101 6.77189 3.36712 6.06445 3.31567C5.31817 3.26142 4.65976 3.43818 4.08398 3.96021L3.96973 4.0686V4.06958C3.6676 4.374 3.43121 4.70589 3.29004 5.09302C3.14784 5.48298 3.12406 5.86933 3.16016 6.24829C3.19505 6.61456 3.28875 6.99563 3.39746 7.38208C3.50001 7.74661 3.6532 8.23986 3.78906 8.71021C3.96356 9.31513 4.14512 9.88569 4.2832 10.304C4.31553 10.4019 4.34705 10.4914 4.37402 10.5715C4.19489 10.8225 3.95536 11.1593 3.70215 11.5276L3.28027 12.1506C3.00931 12.5594 2.71414 12.9856 2.50684 13.303C2.2868 13.6399 2.08285 13.9767 1.93945 14.3157C1.79121 14.6661 1.69734 15.0418 1.71582 15.4563C1.7342 15.8683 1.86009 16.2558 2.05762 16.636C2.45149 17.3949 3.05644 17.7965 3.83398 17.9758C4.52488 18.1352 5.39678 18.1276 6.38672 18.1096C7.16323 18.0957 7.89264 18.1278 8.31836 18.1516C8.37247 18.2243 8.43319 18.3084 8.50195 18.3997C8.63247 18.573 8.78833 18.7764 8.95996 18.9983L9.51562 19.7043C9.82255 20.0871 10.1365 20.4959 10.376 20.7903C10.6296 21.102 10.8877 21.3982 11.167 21.6379C11.4559 21.8859 11.7856 22.0891 12.1855 22.1985C12.5829 22.3071 12.9907 22.3073 13.4141 22.2375V22.2366C14.2576 22.0981 14.8291 21.6522 15.2432 20.97C15.6108 20.3642 15.8744 19.5352 16.165 18.593C16.3439 18.0122 16.5392 17.4638 16.6904 17.0598C16.7314 16.9503 16.7707 16.8523 16.8037 16.7668C17.2216 16.6265 17.8986 16.3952 18.6182 16.1252C19.0795 15.9523 19.5682 15.7809 19.9238 15.6448C20.3004 15.5006 20.6631 15.3477 20.9785 15.1575C21.3046 14.9607 21.6017 14.7111 21.8311 14.3655C22.0019 14.108 22.1156 13.8261 22.1895 13.5227L22.251 13.2122C22.3117 12.8184 22.2939 12.4329 22.1738 12.0559C22.0552 11.6836 21.8512 11.3657 21.6055 11.0833C21.1406 10.549 20.4305 10.0442 19.6201 9.47974C19.1207 9.13213 18.6579 8.77797 18.3184 8.51001C18.217 8.42999 18.1279 8.35677 18.0518 8.29517C18.024 7.8675 17.982 7.12252 17.9873 6.33716V6.33618C17.9934 5.35136 17.9909 4.48231 17.8223 3.79517C17.733 3.43161 17.5907 3.08129 17.3545 2.76978C17.1156 2.4547 16.8106 2.21812 16.4541 2.04028C16.0704 1.84879 15.6812 1.72933 15.2695 1.71606Z" fill="#92CF77" stroke="#7AAB64" stroke-width="1.71429"/>
</svg>
