<svg width="21" height="20" viewBox="0 0 21 20" fill="none" xmlns="http://www.w3.org/2000/svg">
<path d="M16.6578 12.4536C17.2348 13.0183 17.5894 13.7702 17.6573 14.5729V14.5704C18.351 14.6536 18.9865 14.9977 19.4336 15.5324C19.8806 16.067 20.1053 16.7516 20.0615 17.4459C20.0178 18.1402 19.709 18.7915 19.1984 19.2664C18.6878 19.7412 18.0141 20.0037 17.3153 20H10.0451C4.49729 20 0 15.5229 0 9.99998C0 4.47707 4.49771 0 10.0451 0C15.5926 0 20.0903 4.47707 20.0903 9.99998C20.0922 11.4657 19.7692 12.9121 19.1461 14.2365C18.9119 14.111 18.5734 13.9946 18.3044 13.9444C18.2207 13.1667 17.6269 12.2322 16.9093 11.6667C16.3036 11.1893 15.6067 10.9695 15.2313 10.8634C15.3771 9.97605 15.2914 9.06432 14.9798 8.21653C14.6308 7.26673 14.0131 6.43776 13.2013 5.82963C12.3895 5.22151 11.4183 4.86021 10.4049 4.78931C9.39142 4.71842 8.37901 4.94097 7.48978 5.4301C6.60055 5.91924 5.87248 6.65407 5.39342 7.54595C4.91435 8.43783 4.70474 9.44865 4.78989 10.4565C4.87504 11.4643 5.25129 12.4261 5.87327 13.2258C6.49525 14.0254 7.33638 14.6289 8.29519 14.9633C8.50025 14.6564 8.77857 14.4049 9.10522 14.2313C9.43187 14.0577 9.79666 13.9675 10.1669 13.9687C10.4462 13.9702 10.7228 14.0238 10.9823 14.1266C11.1573 13.3402 11.6097 12.6423 12.2574 12.1594C12.905 11.6766 13.705 11.4407 14.5124 11.4947C15.3197 11.5487 16.0809 11.8889 16.6578 12.4536Z" fill="var(-------------A1D, white)"/>
<path d="M16.6578 12.4536C17.2348 13.0183 17.5894 13.7702 17.6573 14.5729V14.5704C18.351 14.6536 18.9865 14.9977 19.4336 15.5324C19.8806 16.067 20.1053 16.7516 20.0615 17.4459C20.0178 18.1402 19.709 18.7915 19.1984 19.2664C18.6878 19.7412 18.0141 20.0037 17.3153 20H10.0451C4.49729 20 0 15.5229 0 9.99998C0 4.47707 4.49771 0 10.0451 0C15.5926 0 20.0903 4.47707 20.0903 9.99998C20.0922 11.4657 19.7692 12.9121 19.1461 14.2365C18.9119 14.111 18.5734 13.9946 18.3044 13.9444C18.2207 13.1667 17.6269 12.2322 16.9093 11.6667C16.3036 11.1893 15.6067 10.9695 15.2313 10.8634C15.3771 9.97605 15.2914 9.06432 14.9798 8.21653C14.6308 7.26673 14.0131 6.43776 13.2013 5.82963C12.3895 5.22151 11.4183 4.86021 10.4049 4.78931C9.39142 4.71842 8.37901 4.94097 7.48978 5.4301C6.60055 5.91924 5.87248 6.65407 5.39342 7.54595C4.91435 8.43783 4.70474 9.44865 4.78989 10.4565C4.87504 11.4643 5.25129 12.4261 5.87327 13.2258C6.49525 14.0254 7.33638 14.6289 8.29519 14.9633C8.50025 14.6564 8.77857 14.4049 9.10522 14.2313C9.43187 14.0577 9.79666 13.9675 10.1669 13.9687C10.4462 13.9702 10.7228 14.0238 10.9823 14.1266C11.1573 13.3402 11.6097 12.6423 12.2574 12.1594C12.905 11.6766 13.705 11.4407 14.5124 11.4947C15.3197 11.5487 16.0809 11.8889 16.6578 12.4536Z" fill="var(-------------A1D, white)"/>
</svg>
