<svg width="24" height="24" viewBox="0 0 24 24" fill="none" xmlns="http://www.w3.org/2000/svg">
<path fill-rule="evenodd" clip-rule="evenodd" d="M3.99997 3C3.73462 3 3.48014 3.10547 3.29259 3.29318C3.10503 3.4809 2.99978 3.73546 3 4.00082L3.00635 11.5L6.49993 11.5V9.50002H5.0046L5.00079 4.99995H18.999L18.999 9.49953H17.5V11.4995H18.999V11.5H20.9989L20.999 3.99998C20.999 3.73477 20.8936 3.48042 20.7061 3.29289C20.5186 3.10535 20.2642 3 19.999 3H3.99997ZM20.9989 12.9999H18.999L18.999 18.999H5.01264L5.00756 12.9999H3.00762L3.01354 19.9998C3.01401 20.5518 3.46158 20.999 4.01352 20.999H19.9989C20.5512 20.999 20.9989 20.5513 20.9989 19.999L20.9989 12.9999ZM8.51944 9.30607C8.74788 8.81447 9.24073 8.50002 9.78281 8.50002H15.9998V11.4999H13.4994V15.4991H10.5V11.4999H7.5392C7.52093 11.4999 7.50883 11.481 7.51653 11.4644L8.51944 9.30607Z" fill="var(-------------A1D, white)"/>
</svg>
