<svg width="24" height="24" viewBox="0 0 24 24" fill="none" xmlns="http://www.w3.org/2000/svg">
<path fill-rule="evenodd" clip-rule="evenodd" d="M3.49997 3.5C2.9477 3.5 2.5 3.9477 2.5 4.49997V19.999C2.5 20.5512 2.9477 20.9989 3.49997 20.9989H7.4228C7.76026 20.9989 8.07496 20.8287 8.25967 20.5463L9.92505 17.9999H14.0738L15.7392 20.5463C15.9239 20.8287 16.2386 20.9989 16.5761 20.9989H20.4989C21.0512 20.9989 21.4989 20.5512 21.4989 19.999V4.49997C21.4989 3.9477 21.0512 3.5 20.4989 3.5H3.49997ZM4.49994 18.999V5.49994H19.4989V18.999H17.1169L15.4515 16.4526C15.2668 16.1702 14.9521 16 14.6146 16H9.38421C9.04674 16 8.73204 16.1702 8.54733 16.4526L6.88195 18.999H4.49994ZM11.9994 8.49997H9.87934L8.99997 9.63326L8.12059 8.49997H6.00052L7.93993 10.9994L5.99997 13.4995H8.12004L8.99997 12.3655L9.8799 13.4995H12L10.06 10.9994L11.9994 8.49997ZM15.9996 9.74981C15.9996 10.4401 15.4401 10.9996 14.7498 10.9996C14.0595 10.9996 13.5 10.4401 13.5 9.74981C13.5 9.05954 14.0595 8.49997 14.7498 8.49997C15.4401 8.49997 15.9996 9.05954 15.9996 9.74981ZM16.7498 13.4996C17.4401 13.4996 17.9996 12.9401 17.9996 12.2498C17.9996 11.5595 17.4401 11 16.7498 11C16.0595 11 15.5 11.5595 15.5 12.2498C15.5 12.9401 16.0595 13.4996 16.7498 13.4996Z" fill="var(-------------A1D, white)"/>
</svg>
