<svg width="24" height="24" viewBox="0 0 24 24" fill="none" xmlns="http://www.w3.org/2000/svg">
<path d="M11.999 2.50049C16.9691 2.5005 20.9988 6.52947 20.999 11.4995V19.9995C20.999 20.3464 20.8187 20.668 20.5234 20.8501C20.2282 21.0321 19.8597 21.0488 19.5498 20.8931L16.2334 19.2271L12.667 20.9048C12.3972 21.0314 12.085 21.0309 11.8154 20.9038L8.23633 19.2144L4.40527 20.9136C4.09604 21.0507 3.73865 21.0218 3.45508 20.8374C3.17151 20.6529 3.00004 20.3378 3 19.9995V11.4995C3.00026 6.52962 7.02913 2.50074 11.999 2.50049ZM11.999 4.50049C8.13367 4.50074 5.00026 7.63415 5 11.4995V18.4624L7.84473 17.2017L7.94531 17.1626C8.18504 17.086 8.44677 17.1029 8.67676 17.2114L12.2422 18.8931L15.8242 17.2104L15.9297 17.1675C16.1812 17.0827 16.4583 17.1016 16.6982 17.2222L18.999 18.3774V11.4995C18.9988 7.63401 15.8646 4.5005 11.999 4.50049ZM10 12.9995H8V9.99951H10V12.9995ZM16 12.9995H14V9.99951H16V12.9995Z" fill="var(-------------A1D, white)"/>
<path fill-rule="evenodd" clip-rule="evenodd" d="M11.9995 4.50043C8.13373 4.50043 4.99994 7.63422 4.99994 11.5V18.4623L7.84444 17.2013C8.11004 17.0835 8.41372 17.0871 8.67646 17.2111L12.2427 18.8941L15.8237 17.2105C16.1015 17.0799 16.4239 17.0841 16.6981 17.2219L18.999 18.3779V11.5C18.999 7.63422 15.8652 4.50043 11.9995 4.50043ZM3 11.5C3 6.52969 7.02919 2.50049 11.9995 2.50049C16.9697 2.50049 20.9989 6.52969 20.9989 11.5V19.9994C20.9989 20.3463 20.8191 20.6684 20.5238 20.8505C20.2286 21.0326 19.86 21.0487 19.55 20.8929L16.2347 19.2272L12.6673 20.9044C12.3974 21.0313 12.0849 21.031 11.8151 20.9037L8.2367 19.215L4.40523 20.9136C4.09593 21.0507 3.73828 21.0221 3.45468 20.8376C3.17108 20.6531 3 20.3377 3 19.9994V11.5ZM7.99997 9.99997H9.99992V12.9999H7.99997V9.99997ZM15.9999 9.99997H14V12.9999H15.9999V9.99997Z" fill="var(-------------A1D, white)"/>
</svg>
