<svg width="24" height="24" viewBox="0 0 24 24" fill="none" xmlns="http://www.w3.org/2000/svg">
<path d="M11.9961 2.8418C12.5483 2.84182 12.9961 3.28955 12.9961 3.8418V10.8418H14.6304C14.985 10.8418 15.1851 11.2491 14.9683 11.5298L12.3594 14.9072C12.1892 15.1276 11.8567 15.1289 11.6851 14.9097L9.04053 11.5317C8.82121 11.2515 9.02063 10.8419 9.37646 10.8418H10.9961V4.8418H5V18.8408H18.999V4.8418H14.998V2.8418H19.999C20.5513 2.84182 20.999 3.28955 20.999 3.8418V19.8408C20.999 20.106 20.8936 20.3603 20.7061 20.5479C20.5185 20.7354 20.2642 20.8408 19.999 20.8408H4C3.73481 20.8408 3.48049 20.7354 3.29297 20.5479C3.10545 20.3603 3.00001 20.106 3 19.8408V3.8418C3 3.57659 3.10544 3.32229 3.29297 3.13477C3.4805 2.94724 3.73479 2.8418 4 2.8418H11.9961Z" fill="var(-------------A1D, white)"/>
</svg>
