<svg width="24" height="24" viewBox="0 0 24 24" fill="none" xmlns="http://www.w3.org/2000/svg">
<path fill-rule="evenodd" clip-rule="evenodd" d="M8.00007 6.10892C8.00008 5.63748 7.48397 5.34599 7.07769 5.58797L2.9086 8.07109C2.50535 8.31127 2.51511 8.89634 2.92616 9.12304L7.09519 11.4223C7.50144 11.6463 8.00001 11.3537 8.00001 10.8913L8.00003 9.5239L21 9.5239V7.52396L8.00005 7.52396L8.00007 6.10892ZM15.6105 13.1089C15.6105 12.6374 16.1266 12.3459 16.5329 12.5879L20.702 15.071C21.1052 15.3112 21.0955 15.8963 20.6844 16.123L16.5154 18.4222C16.1091 18.6463 15.6106 18.3537 15.6106 17.8912L15.6106 16.5238L2.6106 16.5238V14.5239L15.6105 14.5239L15.6105 13.1089Z" fill="var(-------------A1D, white)"/>
</svg>
