<svg width="24" height="24" viewBox="0 0 24 24" fill="none" xmlns="http://www.w3.org/2000/svg">
<path d="M22 22H2V20H22V22ZM13.2881 4.7998L13.2856 4.80176L18.4795 9.99512C19.241 10.757 19.2406 11.9921 18.479 12.7539L12.833 18.4004C12.0712 19.162 10.8361 19.1619 10.0742 18.4004L4.42773 12.7539C3.66615 11.992 3.66607 10.757 4.42773 9.99512L10.0737 4.34912C10.0917 4.33113 10.1104 4.31352 10.1289 4.29639L8.93262 3.07715L10.2905 1.74463L13.2881 4.7998ZM17.9873 14.0088C18.1655 13.814 18.4956 13.814 18.6738 14.0088C19.1379 14.5164 19.7865 15.3035 19.7866 16.4121C19.7866 17.4023 19.1347 18.205 18.3306 18.2051C17.5264 18.2051 16.8745 17.4024 16.8745 16.4121C16.8746 15.3034 17.5232 14.5164 17.9873 14.0088ZM11.4878 5.69385C11.4687 5.67508 11.438 5.67505 11.4189 5.69385L6.12744 10.9858H16.7798L11.4878 5.69385Z" fill="var(-------------A1D, white)"/>
</svg>
