<svg width="24" height="24" viewBox="0 0 24 24" fill="none" xmlns="http://www.w3.org/2000/svg">
<path d="M16.5034 3.5C19.2648 3.5 21.5034 5.73858 21.5034 8.5V13.2251H19.5034V8.5C19.5034 6.84315 18.1603 5.5 16.5034 5.5H4.5V18.5H13.3979V20.5H3.5C2.94772 20.5 2.5 20.0523 2.5 19.5V4.5C2.5 3.94772 2.94772 3.5 3.5 3.5H16.5034ZM8.76318 11.4409C9.09514 11.2913 9.47065 11.2674 9.81885 11.374L9.89307 11.3989L14.8379 13.1987V15.3271L9.41406 13.353L5.99023 15.1182V12.8682L8.69238 11.4751L8.76318 11.4409ZM8.25 8C8.94036 8 9.5 8.55964 9.5 9.25C9.5 9.94036 8.94036 10.5 8.25 10.5C7.55964 10.5 7 9.94036 7 9.25C7 8.55964 7.55964 8 8.25 8Z" fill="white"/>
<path d="M21.0596 16.25H16.9404L19 19.1924L21.0596 16.25Z" fill="white" stroke="white" stroke-width="1.49995"/>
</svg>
