<svg width="33" height="33" viewBox="0 0 33 33" fill="none" xmlns="http://www.w3.org/2000/svg">
<path d="M14.4367 1.44139C14.81 -0.480465 17.56 -0.480463 17.9333 1.44139L18.7292 5.53921C19.5253 9.63819 22.7304 12.8433 26.8293 13.6394L30.9272 14.4353C32.849 14.8085 32.849 17.5586 30.9272 17.9318L26.8293 18.7277C22.7304 19.5238 19.5253 22.7289 18.7292 26.8279L17.9333 30.9257C17.56 32.8475 14.81 32.8475 14.4367 30.9257L13.6408 26.8279C12.8447 22.7289 9.63965 19.5238 5.54068 18.7277L1.44286 17.9318C-0.479001 17.5586 -0.478998 14.8085 1.44286 14.4353L5.54068 13.6394C9.63965 12.8433 12.8447 9.63818 13.6408 5.53921L14.4367 1.44139Z" fill="#FF5A59"/>
</svg>
