<svg width="62" height="62" viewBox="0 0 62 62" fill="none" xmlns="http://www.w3.org/2000/svg">
<circle cx="30.9273" cy="30.9273" r="30.9273" fill="#FBF5D5"/>
<path d="M40.0066 34.7212C40.8948 35.5945 41.4406 36.7571 41.5451 37.9984V37.9945C42.6131 38.1231 43.5914 38.6553 44.2796 39.4821C44.9678 40.3089 45.3136 41.3675 45.2463 42.4411C45.179 43.5147 44.7036 44.5219 43.9176 45.2562C43.1315 45.9905 42.0944 46.3964 41.0187 46.3906H29.8269C21.2865 46.3906 14.3633 39.4674 14.3633 30.927C14.3633 22.3866 21.2871 15.4634 29.8269 15.4634C38.3667 15.4634 45.2905 22.3866 45.2905 30.927C45.2936 33.1936 44.7962 35.4302 43.8371 37.4783C43.4766 37.2841 42.9554 37.1042 42.5414 37.0266C42.4126 35.8238 41.4984 34.3789 40.3937 33.5043C39.4614 32.7662 38.3885 32.4263 37.8105 32.2621C38.035 30.89 37.9031 29.4801 37.4235 28.1691C36.8861 26.7004 35.9352 25.4185 34.6856 24.4781C33.4359 23.5377 31.9408 22.979 30.3807 22.8694C28.8206 22.7598 27.2621 23.1039 25.8932 23.8603C24.5243 24.6167 23.4035 25.753 22.666 27.1322C21.9285 28.5113 21.6058 30.0744 21.7369 31.6329C21.868 33.1914 22.4472 34.6786 23.4047 35.9152C24.3622 37.1518 25.657 38.085 27.133 38.6021C27.4487 38.1275 27.8771 37.7386 28.38 37.4702C28.8828 37.2018 29.4444 37.0622 30.0144 37.0641C30.4444 37.0664 30.8701 37.1492 31.2695 37.3083C31.5391 36.0922 32.2355 35.013 33.2325 34.2663C34.2294 33.5196 35.461 33.1549 36.7038 33.2384C37.9466 33.3218 39.1184 33.8479 40.0066 34.7212Z" fill="#F43837"/>
</svg>
