<svg width="25" height="25" viewBox="0 0 25 25" fill="none" xmlns="http://www.w3.org/2000/svg">
<circle cx="12.5" cy="12.5" r="11.25" stroke="var(-----------A1, #242424)" stroke-width="2.5"/>
<path d="M4.98699 21.7792L3.21922 20.0114L7.16632 16.0643C7.39575 16.4067 7.66073 16.7327 7.96319 17.0352C8.26572 17.3377 8.59164 17.6026 8.93408 17.8321L4.98699 21.7792ZM21.7801 20.0121L20.0123 21.7798L16.0652 17.8328C16.4076 17.6033 16.7329 17.3376 17.0354 17.0352C17.3378 16.7328 17.6036 16.4073 17.833 16.065L21.7801 20.0121ZM8.93339 7.16538C8.59106 7.3948 8.26494 7.65982 7.9625 7.96226C7.66001 8.26477 7.39506 8.59073 7.16563 8.93315L3.21853 4.98606L4.9863 3.21829L8.93339 7.16538ZM17.833 8.93315C17.6036 8.59073 17.3386 8.26477 17.0361 7.96226C16.7337 7.65982 16.4076 7.3948 16.0652 7.16538L20.013 3.2176L21.7808 4.98537L17.833 8.93315Z" fill="var(-----------A1, #242424)"/>
<path d="M12.1084 5.72827C12.2374 5.3536 12.7675 5.3536 12.8965 5.72827L13.8076 8.37378C13.8492 8.49427 13.9444 8.58762 14.0625 8.63549C15.5907 9.25304 16.6689 10.7512 16.6689 12.5007C16.6689 14.8018 14.804 16.6675 12.5029 16.6677C10.2018 16.6677 8.33596 14.8019 8.33594 12.5007C8.33594 10.7512 9.41418 9.25304 10.9424 8.63549C11.0606 8.58767 11.1556 8.49432 11.1973 8.37378L12.1084 5.72827ZM12.502 9.99975C11.1213 9.99975 10.0021 11.1192 10.002 12.4998C10.002 13.8805 11.1212 14.9998 12.502 14.9998C13.8827 14.9998 15.002 13.8805 15.002 12.4998C15.0018 11.1192 13.8826 9.99975 12.502 9.99975Z" fill="var(-----------A1, #242424)"/>
<path d="M14.1922 8.82657L12.8953 4.93585C12.7687 4.55598 12.2313 4.55598 12.1047 4.93585L10.8078 8.82657C10.7179 9.09638 10.9187 9.375 11.2031 9.375H13.7969C14.0813 9.375 14.2821 9.09638 14.1922 8.82657Z" fill="var(-----------A1, #242424)"/>
<circle cx="12.5" cy="12.5" r="3.75" stroke="var(-----------A1, #242424)" stroke-width="2.5"/>
</svg>
