<svg width="24" height="24" viewBox="0 0 24 24" fill="none" xmlns="http://www.w3.org/2000/svg">
<path d="M15.2715 1.71582C14.8571 1.70248 14.4824 1.79891 14.1328 1.9502C13.7946 2.09664 13.459 2.30338 13.123 2.52637C12.8066 2.73644 12.3824 3.03492 11.9746 3.30957C11.4522 3.66139 10.9671 4.00479 10.6133 4.25977C10.5184 4.32816 10.433 4.39094 10.3584 4.44531C9.93874 4.34476 9.25435 4.17301 8.54395 3.93945C7.604 3.63076 6.77384 3.36688 6.06641 3.31543C5.32013 3.26117 4.66171 3.43794 4.08594 3.95996L3.97168 4.06836V4.06934C3.66955 4.37375 3.43316 4.70565 3.29199 5.09277C3.14979 5.48274 3.12601 5.86909 3.16211 6.24805C3.19701 6.61432 3.29071 6.99539 3.39941 7.38184C3.50196 7.74637 3.65515 8.23961 3.79102 8.70996C3.96551 9.31488 4.14707 9.88544 4.28516 10.3037C4.31748 10.4016 4.349 10.4912 4.37598 10.5713C4.19684 10.8223 3.95732 11.1591 3.7041 11.5273L3.28223 12.1504C3.01127 12.5592 2.7161 12.9853 2.50879 13.3027C2.28875 13.6396 2.0848 13.9765 1.94141 14.3154C1.79317 14.6659 1.69929 15.0415 1.71777 15.4561C1.73615 15.868 1.86205 16.2555 2.05957 16.6357C2.45344 17.3946 3.05839 17.7962 3.83594 17.9756C4.52683 18.1349 5.39874 18.1274 6.38867 18.1094C7.16518 18.0954 7.89459 18.1275 8.32031 18.1514C8.37442 18.224 8.43515 18.3081 8.50391 18.3994C8.63442 18.5727 8.79028 18.7762 8.96191 18.998L9.51758 19.7041C9.8245 20.0869 10.1385 20.4956 10.3779 20.79C10.6315 21.1018 10.8897 21.3979 11.1689 21.6377C11.4579 21.8857 11.7875 22.0888 12.1875 22.1982C12.5848 22.3069 12.9926 22.307 13.416 22.2373V22.2363C14.2596 22.0978 14.8311 21.6519 15.2451 20.9697C15.6128 20.3639 15.8764 19.535 16.167 18.5928C16.3459 18.012 16.5412 17.4636 16.6924 17.0596C16.7334 16.95 16.7727 16.852 16.8057 16.7666C17.2236 16.6262 17.9005 16.395 18.6201 16.125C19.0815 15.952 19.5702 15.7806 19.9258 15.6445C20.3024 15.5004 20.6651 15.3475 20.9805 15.1572C21.3066 14.9604 21.6037 14.7108 21.833 14.3652C22.0038 14.1078 22.1176 13.8259 22.1914 13.5225L22.2529 13.2119C22.3137 12.8182 22.2959 12.4326 22.1758 12.0557C22.0571 11.6834 21.8532 11.3654 21.6074 11.083C21.1425 10.5488 20.4324 10.044 19.6221 9.47949C19.1227 9.13189 18.6598 8.77773 18.3203 8.50977C18.2189 8.42974 18.1299 8.35653 18.0537 8.29492C18.0259 7.86725 17.984 7.12227 17.9893 6.33691V6.33594C17.9953 5.35112 17.9928 4.48206 17.8242 3.79492C17.735 3.43137 17.5926 3.08105 17.3564 2.76953C17.1175 2.45446 16.8125 2.21787 16.4561 2.04004C16.0724 1.84854 15.6832 1.72909 15.2715 1.71582Z" fill="#92CF77" stroke="#7AAB64" stroke-width="1.71429"/>
</svg>
